<svg width="191" height="157" viewBox="0 0 191 157" fill="none" xmlns="http://www.w3.org/2000/svg">
<path d="M188.5 156.167H3.01111C1.76445 156.167 0.744446 155.147 0.744446 153.9V145.022C0.744446 143.776 1.76445 142.756 3.01111 142.756H188.5C189.747 142.756 190.767 143.776 190.767 145.022V153.9C190.767 155.147 189.747 156.167 188.5 156.167Z" fill="#F7F7F7"/>
<path d="M97.2667 145.967C132.11 145.967 160.356 117.721 160.356 82.8778C160.356 48.0347 132.11 19.7889 97.2667 19.7889C62.4237 19.7889 34.1778 48.0347 34.1778 82.8778C34.1778 117.721 62.4237 145.967 97.2667 145.967Z" fill="#EFE6FF"/>
<path d="M175.467 127.437C176.808 124.018 178.168 120.221 176.902 116.783C176.6 115.952 176.128 115.064 176.411 114.214C176.789 113.062 178.3 112.666 178.791 111.57C179.358 110.361 178.47 108.963 178.697 107.66C178.923 106.338 180.227 105.469 181.492 104.997C182.758 104.524 184.137 104.222 185.157 103.353C187.102 101.653 186.876 98.6122 186.441 96.0433C186.007 93.4933 185.686 90.4711 187.556 88.6766C184.118 89.3377 180.604 90.0177 177.62 91.8311C174.636 93.6444 172.256 96.8555 172.426 100.35C172.52 102.107 173.2 103.977 172.407 105.526C171.538 107.207 169.214 107.868 168.629 109.662C167.949 111.721 169.97 113.61 170.763 115.631C171.519 117.539 171.16 119.673 171.33 121.694C171.5 123.734 172.558 126.039 174.579 126.341L175.467 127.437Z" fill="#FFBE55"/>
<path opacity="0.31" d="M175.467 127.437C176.808 124.018 178.168 120.221 176.902 116.783C176.6 115.952 176.128 115.064 176.411 114.214C176.789 113.062 178.3 112.666 178.791 111.57C179.358 110.361 178.47 108.963 178.697 107.66C178.923 106.338 180.227 105.469 181.492 104.997C182.758 104.524 184.137 104.222 185.157 103.353C187.102 101.653 186.876 98.6122 186.441 96.0433C186.007 93.4933 185.686 90.4711 187.556 88.6766C184.118 89.3377 180.604 90.0177 177.62 91.8311C174.636 93.6444 172.256 96.8555 172.426 100.35C172.52 102.107 173.2 103.977 172.407 105.526C171.538 107.207 169.214 107.868 168.629 109.662C167.949 111.721 169.97 113.61 170.763 115.631C171.519 117.539 171.16 119.673 171.33 121.694C171.5 123.734 172.558 126.039 174.579 126.341L175.467 127.437Z" fill="white"/>
<path d="M174.088 122.96C174.05 113.024 175.977 92.2278 187.442 88.7522" stroke="white" stroke-width="0.75" stroke-miterlimit="10" stroke-linecap="round"/>
<path d="M167.477 126.606C165.437 122.79 163.321 118.54 164.322 114.328C164.568 113.308 164.983 112.212 164.549 111.249C163.963 109.964 162.131 109.681 161.394 108.472C160.582 107.15 161.413 105.374 160.96 103.882C160.507 102.352 158.863 101.54 157.333 101.143C155.803 100.766 154.141 100.614 152.819 99.7078C150.307 97.9889 150.156 94.3811 150.307 91.34C150.458 88.2989 150.42 84.71 147.983 82.8778C152.101 83.18 156.313 83.5011 160.053 85.22C163.793 86.9389 167.042 90.3767 167.307 94.4945C167.439 96.5534 166.891 98.8389 168.043 100.558C169.29 102.409 172.104 102.862 173.049 104.883C174.126 107.207 172.029 109.681 171.368 112.156C170.763 114.479 171.462 116.934 171.538 119.333C171.613 121.732 170.688 124.584 168.364 125.227L167.477 126.606Z" fill="#FFBE55"/>
<path d="M168.478 121.166C167.156 109.511 162.056 85.4278 148.134 82.9534" stroke="white" stroke-width="0.75" stroke-miterlimit="10" stroke-linecap="round"/>
<path d="M180.378 148.989H162.433C161.187 148.989 160.167 147.969 160.167 146.722L158.656 120.844C158.656 119.598 159.676 118.578 160.922 118.578H181.889C183.136 118.578 184.156 119.598 184.156 120.844L182.644 146.722C182.644 147.969 181.624 148.989 180.378 148.989Z" fill="#2D2B6C"/>
<path d="M17.6586 66.8041L29.2373 65.0484L37.1095 116.966L25.5308 118.722L17.6586 66.8041Z" fill="#FFBE55"/>
<path d="M23.444 65.9312L29.2334 65.0533L37.1056 116.971L31.3162 117.849L23.444 65.9312Z" fill="#FFBE55"/>
<path d="M29.2478 65.1033L17.6689 66.86L20.3889 59.89L21.9378 55.9611L24.5822 59.2667L29.2478 65.1033Z" fill="#FFEBC2"/>
<path d="M24.5822 59.2667L20.3889 59.89L21.9378 55.9611L24.5822 59.2667Z" fill="#0E538C"/>
<path d="M38.544 53.162L50.2083 54.2065L45.5248 106.508L33.8605 105.463L38.544 53.162Z" fill="#FFBE55"/>
<path d="M44.3873 53.6885L50.2195 54.2107L45.536 106.512L39.7039 105.99L44.3873 53.6885Z" fill="#FFBE55"/>
<path d="M50.2145 54.2611L38.5411 53.2222L42.8478 47.1022L45.2845 43.6456L47.06 47.48L50.2145 54.2611Z" fill="#FFEBC2"/>
<path d="M47.06 47.48L42.8478 47.1022L45.2844 43.6456L47.06 47.48Z" fill="#0E538C"/>
<path d="M57.8833 149.178H11.87L5.84442 77.9667H61.5666L57.8833 149.178Z" fill="#2D2B6C"/>
<path opacity="0.5" d="M33.7056 149.178H57.8833L61.5667 77.9667H33.7056V149.178Z" fill="#CCE9FF"/>
<path d="M43.8111 129.08H160.733V145.154H43.8111V129.08Z" fill="#FFEBC2"/>
<path d="M44.3022 129.08V145.154H166.967V146.363C166.967 147.856 165.663 149.064 164.058 149.064H44.8311C41.0345 149.064 37.9556 146.231 37.9556 142.718V131.97C37.9556 128.457 41.0345 125.623 44.8311 125.623H164.058C165.663 125.623 166.967 126.832 166.967 128.324V129.099H44.3022V129.08Z" fill="#FFBE55"/>
<path d="M43.8111 136.239H160.733V145.136H43.8111V136.239Z" fill="#FFEBC2"/>
<path d="M58.9222 109.511H153.933V123.489H58.9222V109.511Z" fill="#CCE9FF"/>
<path d="M58.9222 109.511V123.489H157.522V124.547C157.522 125.85 156.464 126.889 155.18 126.889H59.3378C56.2967 126.889 53.8222 124.414 53.8222 121.373V112.023C53.8222 108.982 56.2967 106.508 59.3378 106.508H155.18C156.464 106.508 157.522 107.566 157.522 108.85V109.53H58.9222V109.511Z" fill="#2A94F4"/>
<path d="M99.9867 61.93C98.6834 60.2111 98.57 57.85 99.7978 56.0555C100.78 54.62 101.441 52.8444 101.366 51.5411C101.214 49.1989 99.76 47.0455 97.7767 45.7611C95.17 44.0611 91.6945 43.8155 88.88 45.1378C86.0656 46.46 84.0256 49.2933 83.6667 52.3722C83.4022 54.5822 83.9122 57 82.7789 58.9267C81.9478 60.3055 80.4178 61.1178 78.9067 61.6655C77.3767 62.1944 75.7711 62.5533 74.3733 63.3655C72.9756 64.1778 71.7856 65.5755 71.8045 67.2C71.8234 68.4278 72.5222 69.5611 72.5978 70.77C72.7111 72.5456 71.4645 74.1133 70.1422 75.2844C68.8011 76.4555 67.2711 77.4755 66.3645 79.0055C64.8722 81.5367 65.5711 84.9555 67.46 87.2222C69.3489 89.4889 72.1822 90.7544 75.0156 91.4911C82.76 93.5311 90.92 92.2089 98.91 92.0767C101.384 92.0389 103.916 92.1144 106.314 91.4911C108.713 90.8678 111.056 89.4322 112.057 87.1656C113.077 84.8989 112.567 82.1411 111.207 80.0822C109.847 78.0233 107.712 76.5311 105.464 75.4733C103.84 74.6989 102.102 74.0944 100.78 72.8855C99.4578 71.6767 98.6834 69.6178 99.5711 68.05C99.9111 67.4455 100.478 66.9733 100.799 66.3689C101.441 65.1978 101.177 63.7055 100.459 62.5722C100.327 62.3833 100.176 62.1755 99.9867 61.93Z" fill="#0E538C"/>
<path d="M58.9222 115.744H153.933V123.489H58.9222V115.744Z" fill="#CCE9FF"/>
<path d="M101.8 95.9111L113.511 104.222L127.867 133.878H125.222L109.167 107.622C109.167 107.622 103.689 107.811 101.8 106.111C99.9111 104.411 89.05 97.0445 89.05 97.0445L101.8 95.9111Z" fill="#0B4870"/>
<path d="M81.0789 93.5311C78.9445 99.3111 80.4556 107.433 87.6334 107.811C94.8111 108.189 97.0778 107.811 97.0778 107.811L111.056 136.144H114.267L103.311 104.411L89.9945 97.0445L81.0789 93.5311Z" fill="#0E538C"/>
<path d="M91.9778 60.5889C93.8667 63.0444 98.4 69.8444 100.1 77.4C101.8 84.9555 106.522 95.9111 106.522 95.9111H101.044L95.7556 77.9666L90.8445 61.1555L91.9778 60.5889Z" fill="#4EA3FB"/>
<path d="M97.7956 50.5589C98.0789 55.1867 96.0578 58.36 93.1678 58.5111C90.2778 58.6622 88.3889 54.4689 89.2578 50.5589C91.2789 47.0833 94.0367 46.8 94.0367 46.8H95.7745L97.7956 50.5589Z" fill="#FFE3CA"/>
<path d="M95.8689 47.8011C95.34 49.4256 94.1689 50.8233 92.6578 51.6167C91.1467 52.41 89.3333 52.5989 87.69 52.1078L91.8078 46.2333H95.34L98.7211 48.9156L98.2111 51.9944C96.8889 50.9933 95.8689 47.8011 95.8689 47.8011Z" fill="#0E538C"/>
<path d="M92.2989 57.9633C91.6944 60.3055 91.8833 62.7611 91.8833 63.1389C91.3167 63.8944 88.6722 63.7055 88.2944 61.0611C88.8611 57.6611 89.9944 53.8833 89.9944 53.8833L90.9389 55.9611L92.2989 57.9633Z" fill="#FFE3CA"/>
<path d="M88.6722 59.0589C86.3111 59.8333 78.3778 63.4222 78 64.1778C78.5667 66.2556 81.4 97.0445 81.4 97.0445H94.2444C94.2444 97.0445 92.5444 80.0445 93.4889 78.9111C94.4333 77.7778 97.4556 73.8111 97.0778 73.2445C96.7 72.6778 91.9022 60.4944 91.9022 60.4944L88.6722 59.0589Z" fill="#2A94F4"/>
<path d="M78 64.1777C76.1489 65.5944 68.3666 78.3444 70.8222 85.1444C73.2778 91.9444 81.3055 95.9488 81.3055 95.9488V92.2088C81.3055 92.2088 74.7889 87.0333 75.1666 83.2555C75.5444 79.4777 80.0778 71.7333 80.0778 71.7333L78 64.1777Z" fill="#4EA3FB"/>
<path d="M108.43 99.2167H80.6255C79.7567 99.2167 79.0389 98.4989 79.0389 97.63L78.2833 79.8367C78.2833 78.9678 79.0011 78.25 79.87 78.25H108.808C109.677 78.25 110.394 78.9678 110.394 79.8367L110.017 97.63C110.017 98.4989 109.299 99.2167 108.43 99.2167Z" fill="#FFBE55"/>
<path d="M113.813 136.144C115.683 136.56 118.214 138.619 119.423 139.677C119.669 139.884 119.518 140.3 119.178 140.3C117.232 140.262 112.831 140.054 111.811 139.186C110.489 138.052 110.867 136.163 110.867 136.163H113.813V136.144ZM127.829 133.802C129.491 134.256 131.682 136.182 132.778 137.221C133.023 137.448 132.834 137.844 132.513 137.826C130.681 137.693 126.752 137.334 125.864 136.484C124.693 135.389 125.128 133.67 125.128 133.67L127.829 133.802Z" fill="#1A87D8"/>
<path d="M94.4333 91.5667C95.9981 91.5667 97.2666 90.2982 97.2666 88.7334C97.2666 87.1686 95.9981 85.9 94.4333 85.9C92.8685 85.9 91.6 87.1686 91.6 88.7334C91.6 90.2982 92.8685 91.5667 94.4333 91.5667Z" fill="white"/>
<path d="M69.5 128.967L65.9111 126.889L62.3222 128.967V115.744H69.5V128.967ZM125.147 50.6722C125.147 51.0311 125.014 51.3522 124.788 51.6167C125.014 51.8622 125.147 52.2022 125.147 52.5611V53.7322C125.147 53.9778 125.071 54.2233 124.958 54.4311C125.071 54.6389 125.147 54.8844 125.147 55.13V56.3011C125.147 57.0755 124.523 57.6989 123.749 57.6989H111.584C110.81 57.6989 110.187 57.0755 110.187 56.3011V55.1111C110.187 54.8655 110.262 54.62 110.376 54.4122C110.262 54.2044 110.187 53.9589 110.187 53.7133V52.5422C110.187 52.1833 110.319 51.8622 110.546 51.5978C110.319 51.3522 110.187 51.0122 110.187 50.6533V49.4822C110.187 48.7078 110.81 48.0844 111.584 48.0844H123.749C124.523 48.0844 125.147 48.7078 125.147 49.4822V50.6722ZM134.856 24.19C134.856 31.0089 130.889 36.8833 125.147 39.6789V46.0255C125.147 46.4978 124.75 46.8944 124.278 46.8944H111.056C110.583 46.8944 110.187 46.4978 110.187 46.0255V39.6789C104.444 36.9022 100.478 31.0089 100.478 24.19C100.478 14.6889 108.166 7.0011 117.667 7.0011C127.168 7.0011 134.856 14.7078 134.856 24.19Z" fill="#FFBE55"/>
<path opacity="0.23" d="M123.522 51.7111H112M123.522 54.3556H112" stroke="#7F7F7F" stroke-width="2" stroke-miterlimit="10" stroke-linecap="round"/>
<path d="M120.613 26.3055C120.406 26.1166 120.103 26.0222 119.782 26.06C119.386 26.0977 119.008 26.3244 118.762 26.6455C118.554 26.9289 118.441 27.2689 118.384 27.59C118.214 27.4955 118.026 27.4011 117.856 27.2877L117.799 27.25H117.553L117.497 27.2877C117.308 27.4011 117.138 27.4955 116.968 27.59C116.911 27.2689 116.798 26.9289 116.59 26.6455C116.363 26.3244 115.967 26.0977 115.57 26.06C115.249 26.0222 114.966 26.1166 114.739 26.3055C114.456 26.57 114.361 26.9477 114.456 27.3444C114.607 27.8733 115.041 28.3077 115.551 28.4022C115.872 28.4589 116.174 28.44 116.496 28.3644C116.968 34.5033 117.157 40.7177 117.024 46.8566H117.591C117.723 40.6988 117.534 34.4655 117.062 28.3266C117.062 28.27 117.062 28.2133 117.043 28.1566C117.27 28.0622 117.478 27.9489 117.686 27.8166C117.893 27.93 118.101 28.0622 118.328 28.1566C118.328 28.2133 118.328 28.27 118.309 28.3266C117.837 34.4655 117.648 40.6988 117.78 46.8566H118.347C118.214 40.7177 118.403 34.4844 118.876 28.3644C119.178 28.44 119.499 28.4777 119.82 28.4022C120.311 28.3077 120.764 27.8733 120.916 27.3444C120.991 26.9477 120.897 26.57 120.613 26.3055ZM115.646 27.8733C115.362 27.8166 115.079 27.5333 114.984 27.2122C114.947 27.08 114.928 26.8722 115.098 26.74C115.192 26.6455 115.324 26.6266 115.419 26.6266H115.494C115.721 26.6455 115.967 26.7777 116.118 26.9855C116.288 27.2122 116.382 27.4955 116.42 27.8166C116.156 27.8922 115.91 27.9111 115.646 27.8733ZM120.349 27.2122C120.254 27.5333 119.99 27.8166 119.688 27.8733C119.442 27.93 119.178 27.8922 118.932 27.8166C118.989 27.4955 119.064 27.2122 119.234 26.9855C119.367 26.7966 119.612 26.6644 119.858 26.6266C119.971 26.6077 120.122 26.6266 120.254 26.74C120.387 26.8722 120.368 27.08 120.349 27.2122Z" fill="white"/>
<path d="M113.133 10.1555C108.978 11.6667 102.178 17.1444 102.744 26.0222" stroke="white" stroke-width="4" stroke-miterlimit="10" stroke-linecap="round"/>
<path d="M90.3722 40.9444C93.0324 40.9444 95.1889 38.7879 95.1889 36.1278C95.1889 33.4676 93.0324 31.3111 90.3722 31.3111C87.712 31.3111 85.5555 33.4676 85.5555 36.1278C85.5555 38.7879 87.712 40.9444 90.3722 40.9444Z" fill="#FFBE55"/>
<path d="M141.939 22.4333C143.139 22.4333 144.111 21.4608 144.111 20.2611C144.111 19.0614 143.139 18.0889 141.939 18.0889C140.739 18.0889 139.767 19.0614 139.767 20.2611C139.767 21.4608 140.739 22.4333 141.939 22.4333Z" fill="#FFBE55"/>
<path d="M134.856 57.9444C136.838 57.9444 138.444 56.3376 138.444 54.3556C138.444 52.3735 136.838 50.7667 134.856 50.7667C132.873 50.7667 131.267 52.3735 131.267 54.3556C131.267 56.3376 132.873 57.9444 134.856 57.9444Z" fill="#FFBE55"/>
<path d="M100.478 7.8889C102.46 7.8889 104.067 6.2821 104.067 4.30001C104.067 2.31792 102.46 0.711121 100.478 0.711121C98.4957 0.711121 96.8889 2.31792 96.8889 4.30001C96.8889 6.2821 98.4957 7.8889 100.478 7.8889Z" fill="#FFBE55"/>
<path opacity="0.14" d="M69.5 128.967L65.9111 126.889L62.3222 128.967V115.744H69.5V128.967Z" fill="#0C0C0C"/>
</svg>
