<svg width="593" height="452" viewBox="0 0 593 452" fill="none" xmlns="http://www.w3.org/2000/svg">
<path opacity="0.2" d="M397.719 432.942C397.719 432.942 472.749 401.302 433.819 301.983C394.889 202.664 398.437 182.797 408.336 144.539C418.235 106.282 392.056 23.882 305 48.1606C217.943 72.4392 159.893 171.022 193.162 229.148C226.431 287.273 122.731 341.714 202.893 432.574L397.719 432.942Z" fill="#F9D58C"/>
<path d="M281.363 416.639C280.044 422.411 277.286 427.721 273.367 432.034H255.874L255.779 432.061C255.701 432.079 255.621 432.088 255.541 432.087C255.443 432.087 255.345 432.069 255.253 432.034H225.903C223.846 429.769 222.099 427.22 220.713 424.459C220.398 423.842 220.12 423.214 219.839 422.579C216.905 415.777 216.223 408.155 217.9 400.908C218.19 399.646 218.549 398.403 218.975 397.185C219.254 396.363 219.568 395.56 219.91 394.769C221.911 390.193 224.864 386.137 228.556 382.89C232.247 379.644 236.586 377.29 241.258 375.996L243.494 391.081L243.678 390.173L244.061 388.239L245.757 379.801L246.718 375.006C251.368 374.576 256.053 375.188 260.457 376.802C264.86 378.416 268.878 380.993 272.24 384.36L263.741 394.222L264.178 394.033L266.397 393.069L276.036 388.891C278.797 392.843 280.702 397.369 281.622 402.159C282.542 406.948 282.453 411.888 281.363 416.639Z" fill="#7BD6CB"/>
<path opacity="0.5" d="M277.613 425.64L255.87 432.034L255.775 432.061C255.697 432.079 255.617 432.088 255.538 432.087C255.439 432.087 255.341 432.069 255.249 432.034C255.073 431.977 254.922 431.858 254.822 431.697L254.462 432.034H251.877L269.902 414.922C269.987 414.842 270.086 414.78 270.195 414.74C270.303 414.7 270.417 414.682 270.532 414.688C270.646 414.694 270.759 414.724 270.862 414.775C270.966 414.827 271.059 414.899 271.135 414.987C271.214 415.074 271.275 415.177 271.315 415.289C271.355 415.401 271.373 415.52 271.368 415.639C271.363 415.758 271.335 415.875 271.286 415.983C271.237 416.091 271.168 416.188 271.082 416.267L256.726 429.889L277.129 423.896C277.239 423.863 277.355 423.853 277.47 423.867C277.584 423.881 277.695 423.918 277.795 423.976C277.896 424.034 277.985 424.112 278.056 424.206C278.127 424.3 278.18 424.407 278.212 424.523C278.244 424.637 278.254 424.757 278.241 424.875C278.228 424.993 278.192 425.107 278.137 425.211C278.081 425.315 278.006 425.407 277.916 425.48C277.826 425.554 277.723 425.608 277.613 425.64Z" fill="#01C2AF"/>
<path opacity="0.2" d="M246.992 374.979L246.733 374.998L245.773 379.793L244.077 388.231L243.693 390.164L243.51 391.072L241.274 375.982C236.601 377.275 232.263 379.63 228.572 382.876C224.88 386.122 221.927 390.179 219.926 394.754C219.584 395.545 219.27 396.344 218.991 397.17C218.565 398.389 218.206 399.632 217.916 400.893C216.239 408.141 216.921 415.762 219.855 422.565C220.126 423.199 220.414 423.828 220.728 424.444C222.115 427.206 223.862 429.755 225.919 432.02H240.501C244.308 427.645 248.771 421.009 252.63 411.225C259.774 393.078 250.711 379.499 246.992 374.979Z" fill="#01948E"/>
<path opacity="0.5" d="M233.828 432.034H232.049L231.873 431.081L230.833 425.328C230.697 425.326 230.564 425.291 230.443 425.224C230.323 425.158 230.221 425.062 230.143 424.946L226.998 420.307L225.994 418.807L225.182 417.617L224.107 416.037L217.858 406.792C217.727 406.595 217.675 406.353 217.715 406.117C217.755 405.881 217.883 405.671 218.071 405.533C218.26 405.395 218.493 405.34 218.72 405.38C218.947 405.421 219.15 405.553 219.284 405.748L225.154 414.42L226.23 416.011L227.522 417.917L228.526 419.407L230.214 421.895L229.645 418.762L229.305 416.882L228.515 412.514L228.06 409.989L226.767 402.841C226.724 402.604 226.774 402.358 226.905 402.159C227.036 401.959 227.238 401.822 227.466 401.778C227.694 401.733 227.93 401.784 228.122 401.921C228.314 402.057 228.446 402.267 228.489 402.504L229.45 407.846L229.912 410.371L230.918 415.939L231.258 417.816L233.452 429.988L233.828 432.034Z" fill="#01C2AF"/>
<path d="M274.177 308.698L270.74 309.228C270.74 309.228 266.919 307.506 271.122 294.536C275.324 281.565 278.506 277.596 280.412 278.257C282.317 278.919 283.729 295.331 274.177 308.698Z" fill="#016D62"/>
<path d="M364.331 351.977L366.496 357.271C366.496 357.271 368.915 360.447 351.979 358.596C335.043 356.745 334.407 351.183 334.407 351.183C334.407 351.183 342.938 345.755 364.331 351.977Z" fill="#016D62"/>
<path d="M299.837 165.428C299.837 165.428 306.33 177.55 301.173 181.905C296.016 186.261 294.869 188.258 294.869 188.258L326.004 198.781C326.004 198.781 329.249 196.398 329.823 183.296C330.396 170.194 330.779 170.788 333.07 168.008C335.361 165.229 316.069 175.355 299.837 165.428Z" fill="#FEC3C7"/>
<path d="M299.837 165.428C299.837 165.428 306.33 177.55 301.173 181.905C296.016 186.261 294.869 188.258 294.869 188.258L308.953 193.016C319.765 179.181 312.238 174.301 317.221 173.767C321.226 173.336 327.623 172.179 330.86 171.571C331.313 169.903 331.971 169.344 333.072 168.008C335.361 165.231 316.069 175.355 299.837 165.428Z" fill="#F7A1AA"/>
<path d="M326.577 114.804C326.577 114.804 315.498 122.745 320.082 130.686C324.666 138.626 331.161 118.775 326.577 114.804Z" fill="#ED9F15"/>
<path d="M338.864 105.398C338.864 105.398 346.504 108.178 349.305 103.148C352.106 98.1189 328.931 90.5767 329.441 92.5614C329.951 94.5461 335.3 102.894 338.864 105.398Z" fill="#ED9F15"/>
<path d="M307.285 111.428C307.285 111.428 314.543 100.51 309.004 90.3856C303.466 80.2608 295.253 68.1493 276.915 81.4504C276.915 81.4504 266.984 76.2894 248.847 88.2016C230.709 100.114 218.851 115.003 200.897 113.411C182.942 111.819 154.103 92.1731 137.293 116.591C137.293 116.591 161.551 117.187 176.449 139.025C191.347 160.863 230.12 158.083 243.49 145.973C256.86 133.864 281.309 124.532 294.106 123.936C294.106 123.936 306.522 116.988 307.285 111.428Z" fill="#410C5A"/>
<path d="M308.579 109.061C307.664 103.658 305.715 97.8025 301.556 98.1272C293.915 98.723 291.432 99.7153 291.05 92.7668C290.669 85.8184 281.946 81.4504 278.38 80.6574C278.297 80.6389 278.226 80.6163 278.147 80.5978C277.739 80.8731 277.332 81.1484 276.915 81.4504C276.915 81.4504 292.96 87.8051 288.757 97.3341C288.757 97.3341 286.275 101.503 287.803 102.298C288.906 102.869 299.631 110.662 305.535 114.968C306.472 113.779 307.117 112.575 307.285 111.428C307.765 110.67 308.198 109.879 308.579 109.061Z" fill="#1D0738"/>
<path d="M287.803 102.298C286.978 101.868 287.322 100.463 287.803 99.2571C286.024 98.7867 283.606 99.101 280.789 101.965C274.804 108.055 273.915 113.216 260.544 111.363C247.174 109.509 233.931 120.561 222.28 127.708C210.63 134.856 190.001 127.312 174.911 117.384C161.549 108.595 144.9 110.239 138.343 116.657C143.166 117.068 163.391 119.899 176.437 139.025C191.341 160.871 230.12 158.083 243.49 145.973C256.86 133.864 281.309 124.532 294.106 123.936C294.106 123.936 301.928 119.556 305.535 114.968C299.631 110.662 288.906 102.869 287.803 102.298Z" fill="#1D0738"/>
<path d="M277.297 108.848C277.297 108.848 282.072 121.752 296.589 126.517C296.589 126.517 298.882 133.266 313.015 130.289C327.148 127.312 324.084 126.517 324.084 126.517C324.084 126.517 320.263 124.136 322.173 122.745C324.082 121.354 327.336 117.98 327.336 117.98L317.022 104.679C317.022 104.679 306.899 106.664 304.99 109.84C304.99 109.84 303.078 111.098 303.462 105.54C303.845 99.9824 298.878 99.3188 299.133 104.613C299.388 109.908 292.511 104.348 290.347 101.569C288.182 98.7887 282.96 100.907 279.777 104.613C276.595 108.32 277.297 108.848 277.297 108.848Z" fill="#FEC3C7"/>
<path d="M263.737 129.297C263.737 129.297 260.681 121.157 258.135 130.289C255.589 139.421 260.936 158.613 265.775 155.038C265.775 155.038 271.503 139.752 263.737 129.297Z" fill="#ED9F15"/>
<path d="M303.221 123.803C304.622 119.694 305.395 104.878 302.458 116.261C299.52 127.643 296.599 126.517 296.599 126.517C296.599 126.517 297.969 130.529 305.077 131C302.762 129.576 302.096 127.07 303.221 123.803Z" fill="#F7A1AA"/>
<path d="M324.094 126.517C324.094 126.517 320.273 124.136 322.183 122.745C324.092 121.354 327.336 117.98 327.336 117.98L325.598 115.741C323.918 118.091 320.991 121.931 319.251 122.745C316.703 123.936 319.888 124.729 322.944 126.443C323.322 126.655 323.682 126.9 324.021 127.174C324.766 126.692 324.094 126.517 324.094 126.517Z" fill="#F7A1AA"/>
<path d="M266.411 133.465L245.02 140.81C245.02 140.81 228.975 135.253 220.762 134.647C212.549 134.041 203.565 131.074 201.088 126.903C198.612 122.732 195.554 121.543 195.554 121.543C195.554 121.543 187.53 118.765 186.576 118.765C185.621 118.765 176.263 123.33 176.263 123.33C176.263 123.33 178.363 126.11 181.6 125.315C181.6 125.315 180.072 126.706 181.798 133.654C181.798 133.654 180.652 135.44 184.089 138.22C184.089 138.22 187.082 139.278 185.299 135.175C185.299 135.175 187.078 134.912 186.445 133.455C185.813 131.998 188.61 133.852 190.264 136.366C191.919 138.881 194.721 140.736 197.271 140.348C199.821 139.96 205.931 140.613 216.627 147.494C227.323 154.374 243.241 158.216 246.805 158.348C250.369 158.479 265.142 153.318 270.489 149.612L266.411 133.465Z" fill="#FEC3C7"/>
<path d="M266.411 133.465L262.574 134.778C262.97 137.159 263.122 141.147 260.807 144.578C257.249 149.873 243.745 149.343 243.745 149.343C243.745 149.343 224.389 147.227 214.203 140.079C204.018 132.931 201.47 136.638 199.752 137.63C198.034 138.622 195.168 138.425 192.494 133.858C189.819 129.29 186.19 128.105 186.19 128.105C186.19 128.105 188.673 131.877 187.145 133.069L187.198 133.231C188.038 133.755 189.333 134.961 190.264 136.377C191.92 138.887 194.721 140.736 197.271 140.348C199.821 139.96 205.931 140.613 216.627 147.494C227.323 154.374 243.241 158.216 246.805 158.348C250.369 158.479 265.142 153.318 270.489 149.612L266.411 133.465Z" fill="#F7A1AA"/>
<path d="M194.306 126.12C194.306 126.12 188.194 124.136 186.188 121.752C184.182 119.369 184.279 125.822 186.386 127.61" stroke="#F7A1AA" stroke-miterlimit="10" stroke-linecap="round"/>
<path d="M181.225 127.708C181.225 127.708 185.745 133.167 186.445 133.461" stroke="#F7A1AA" stroke-miterlimit="10" stroke-linecap="round"/>
<path d="M181.798 133.665C181.798 133.665 183.802 135.351 184.949 135.351" stroke="#F7A1AA" stroke-miterlimit="10" stroke-linecap="round"/>
<path d="M328.423 94.9508L332.871 88.8632C332.871 88.8632 327.905 88.0701 323.066 83.7022C318.228 79.3342 302.185 72.7165 299 74.3047C295.816 75.8929 295.442 77.8775 291.616 77.3475C287.789 76.8174 283.849 74.58 282.466 75.7614C282.466 75.7614 280.809 75.4963 282.082 73.9123C282.082 73.9123 278.39 75.1019 277.753 70.7359C277.753 70.7359 277.498 67.2946 278.645 65.9694C279.791 64.6442 279.153 62.5301 280.936 62.3965C282.719 62.263 285.777 58.8237 288.323 58.9552C290.868 59.0867 290.497 61.4699 290.497 61.4699C292.565 61.1325 294.681 61.5538 296.482 62.6616C299.412 64.5107 302.976 65.9694 309.597 66.7707C316.219 67.5719 344.614 68.3588 352.886 77.8878C352.886 77.8878 354.924 79.3445 353.396 82.7859C351.868 86.2272 346.646 100.387 339.261 106.477L328.423 94.9508Z" fill="#FEC3C7"/>
<path d="M342.048 81.584C344.223 73.1131 337.081 80.3923 327.403 78.1426C317.725 75.8929 311.869 74.0335 308.823 72.7165C306.148 71.5578 298.698 71.0092 297.729 75.0546C298.144 74.7772 298.574 74.5267 299.018 74.3047C302.203 72.7165 318.245 79.3342 323.084 83.7022C327.923 88.0702 332.888 88.8632 332.888 88.8632L332.691 89.1426C336.033 88.5776 340.704 86.8395 342.048 81.584Z" fill="#F7A1AA"/>
<path d="M352.871 77.8775C352.803 77.7995 352.724 77.7276 352.655 77.6516C352.351 82.9173 345.341 94.5502 341.283 97.4656C337.741 100.015 332.191 96.1671 329.301 93.751L328.423 94.9508L339.245 106.467C346.63 100.377 351.853 86.2149 353.381 82.7756C354.909 79.3363 352.871 77.8775 352.871 77.8775Z" fill="#F7A1AA"/>
<path d="M277.998 71.6564C278.635 70.5983 287.038 67.2905 287.038 67.2905C287.038 67.2905 291.24 67.5555 286.02 71.3996L282.066 73.9143" stroke="#F7A1AA" stroke-miterlimit="10" stroke-linecap="round"/>
<path d="M278.253 67.1569C278.253 67.1569 285.893 63.9806 287.676 64.2456C289.459 64.5107 289.586 65.9673 287.676 67.422" stroke="#F7A1AA" stroke-miterlimit="10" stroke-linecap="round"/>
<path d="M280.926 62.3924C280.926 62.3924 287.676 60.4077 288.184 61.0693C288.692 61.7309 289.714 62.9184 287.676 64.2456" stroke="#F7A1AA" stroke-miterlimit="10" stroke-linecap="round"/>
<path d="M283.474 72.7165C283.474 72.7165 288.313 70.4668 290.859 71.6584C290.859 71.6584 292.134 68.8786 295.061 69.5402" stroke="#F7A1AA" stroke-miterlimit="10" stroke-linecap="round"/>
<path d="M314.162 105.54C314.162 105.54 322.056 100.51 324.986 96.9375C327.915 93.3647 329.441 92.5696 329.441 92.5696C329.441 92.5696 332.24 98.9243 338.731 103.422C344.812 107.631 347.134 105.271 347.134 105.271C347.134 105.271 330.453 116.121 329.69 118.106C328.927 120.09 330.2 120.224 329.054 124.988C327.907 129.753 331.228 132.002 333.764 134.914C336.3 137.825 341.404 144.046 334.911 152.517L344.715 152.252C344.715 152.252 347.008 171.047 318.228 171.047C289.447 171.047 297.601 156.355 288.182 149.737C278.763 143.12 269.847 154.37 264.116 155.297C264.116 155.297 268.483 148.161 265.136 136.37C262.106 125.724 261.302 125.944 261.302 125.944C261.302 125.944 265.933 129.467 270.987 126.971C275.464 124.766 284.994 121.81 289.704 123.53C289.704 123.53 294.48 126.013 296.581 126.511C296.581 126.511 301.26 131.871 311.766 130.283C322.272 128.695 326.377 123.731 326.377 123.731C326.377 123.731 330.961 118.966 323.61 116.782C316.259 114.598 314.162 105.54 314.162 105.54Z" fill="#FEC748"/>
<path d="M281.883 278.185C281.883 278.185 247.311 272.227 237.951 263.693C228.592 255.158 223.626 247.016 219.042 256.545C214.458 266.074 218.469 265.677 214.267 273.222C210.064 280.766 205.099 286.722 208.155 296.644C208.155 296.644 208.92 297.439 211.403 293.467C213.885 289.496 224.008 277.785 232.986 278.777C241.964 279.77 279.971 302.199 279.971 302.199C279.971 302.199 285.13 282.36 281.883 278.185Z" fill="#FEC3C7"/>
<path d="M281.883 278.185C281.883 278.185 247.311 272.227 237.951 263.693C228.592 255.158 223.626 247.016 219.042 256.545C214.458 266.074 218.469 265.677 214.267 273.222C213.745 274.161 213.211 275.071 212.685 275.973C215.516 274.837 215.506 271.247 219.62 263.493C224.777 253.767 227.833 267.861 237.192 273.421C246.552 278.981 266.415 282.157 272.335 286.919C276.439 290.221 275.864 296.093 275.126 299.39C278.115 301.11 279.975 302.207 279.975 302.207C279.975 302.207 285.13 282.36 281.883 278.185Z" fill="#F7A1AA"/>
<path d="M333.835 347.676C333.835 347.676 336.318 364.154 336.508 366.535C336.698 368.916 338.036 389.764 330.775 398.896C323.515 408.029 327.909 411.601 331.538 415.77C335.168 419.939 343.062 421.728 345.1 429.402C347.138 437.076 357.577 433.1 365.727 433.1C373.877 433.1 374.132 425.424 364.964 426.217C355.796 427.011 352.993 411.659 352.993 411.659C352.993 411.659 350.192 403.983 348.156 401.335C346.12 398.687 346.118 392.866 349.174 382.022C352.23 371.178 358.087 350.793 358.087 350.793L333.835 347.676Z" fill="#FEC3C7"/>
<path d="M345.612 425.963C343.833 421.728 341.028 420.668 334.148 414.315C327.267 407.963 335.676 402.668 340.512 392.344C345.349 382.02 345.098 360.581 346.626 357.405C347.763 355.04 353.978 354.436 357.083 354.282L358.085 350.789L333.829 347.678C333.829 347.678 336.312 364.156 336.502 366.537C336.692 368.918 338.03 389.766 330.769 398.898C323.509 408.031 327.903 411.603 331.532 415.772C335.162 419.941 343.056 421.73 345.094 429.404C346.14 433.347 349.404 434.216 353.434 434.13C348.399 433.554 347.006 429.273 345.612 425.963Z" fill="#F7A1AA"/>
<path d="M376.68 284.608C376.68 284.608 376.427 288.306 374.901 295.462C374.458 297.535 373.564 302.285 372.529 308.383C372.4 309.154 372.27 309.941 372.133 310.756C370.92 318.04 369.564 326.854 368.52 335.273C368.421 336.074 368.322 336.867 368.229 337.662C367.298 345.581 366.68 352.981 366.755 358.208C366.755 358.208 366.755 353.706 348.68 352.911C330.605 352.116 334.163 349.213 334.163 349.213C334.163 349.213 329.068 323.007 335.179 314.534C341.291 306.062 349.443 294.944 345.624 290.18C341.805 285.415 339 284.088 339 284.088C339 284.088 340.526 298.382 332.635 314.795C332.635 314.795 325.247 319.299 307.927 316.916C302.938 316.234 298.058 315.496 293.525 314.748C292.734 314.621 291.967 314.487 291.203 314.36C281.104 312.62 273.104 310.818 270.238 309.238C270.238 309.238 274.411 304.901 277.328 297.223C277.642 296.401 277.94 295.535 278.222 294.626C279.871 289.264 280.448 283.607 279.918 278.005C281.906 277.672 283.912 277.466 285.925 277.388C288.119 277.277 290.318 277.296 292.511 277.444C297.239 277.76 302.671 278.753 307.652 281.183C307.471 280.978 304.543 277.604 300.511 272.219C300.044 271.59 299.556 270.939 299.06 270.259C295.215 264.999 290.631 258.219 286.528 250.77C286.132 250.055 285.749 249.331 285.367 248.618C282.885 243.926 280.623 239.009 278.88 234.07C270.477 210.238 287.285 196.754 297.348 185.503C297.348 185.503 318.358 186.892 328.672 198.009C328.672 198.009 326.188 209.325 326.379 210.318C326.441 210.667 330.955 214.838 337.374 221.864C337.885 222.427 338.411 223 338.955 223.602C345.3 230.649 351.215 238.102 356.664 245.917C357.114 246.562 357.559 247.205 358.002 247.864C365.274 258.599 372.187 271.108 376.68 284.608Z" fill="#01948E"/>
<path d="M296.589 153.715C294.869 145.973 293.533 142.004 286.466 136.046C281.276 131.672 270.321 133.829 264.865 135.284C264.955 135.634 265.046 135.998 265.138 136.375C268.068 148.291 264.118 155.301 264.118 155.301C269.851 154.374 278.761 143.124 288.184 149.741C296.721 155.737 290.837 168.358 311.052 170.679C301.977 166.7 298.046 160.279 296.589 153.715Z" fill="#F4AF25"/>
<path d="M334.934 100.217C331.139 96.3972 329.441 92.5696 329.441 92.5696C329.441 92.5696 327.913 93.3626 324.986 96.9375C322.058 100.512 314.162 105.54 314.162 105.54C314.162 105.54 315.122 109.674 318.01 113.031C320.54 111.925 324.165 109.857 327.913 106.068C330.667 103.286 333.013 101.408 334.934 100.217Z" fill="#F4AF25"/>
<path opacity="0.5" d="M356.662 245.894C354.539 247.158 352.135 247.822 349.688 247.817C346.985 247.82 344.338 247.016 342.061 245.501C339.784 243.987 337.973 241.825 336.843 239.273C335.713 236.72 335.311 233.884 335.685 231.102C336.059 228.319 337.193 225.706 338.953 223.574C338.417 222.972 337.891 222.398 337.372 221.835C334.774 224.876 333.307 228.78 333.235 232.845C333.163 236.91 334.491 240.868 336.979 244.006C339.467 247.143 342.952 249.253 346.805 249.955C350.658 250.658 354.625 249.906 357.992 247.836C357.557 247.182 357.113 246.545 356.662 245.894Z" fill="white"/>
<path opacity="0.5" d="M338.417 268.463C336.202 268.463 334.017 268.998 332.035 270.026C330.053 271.054 328.328 272.547 326.996 274.387C327.615 274.88 328.219 275.365 328.807 275.841C329.81 274.451 331.082 273.293 332.54 272.442C333.999 271.591 335.612 271.066 337.277 270.9C338.942 270.734 340.622 270.931 342.21 271.478C343.797 272.025 345.257 272.91 346.497 274.077C347.737 275.244 348.729 276.667 349.409 278.255C350.09 279.843 350.444 281.561 350.449 283.3C350.455 285.038 350.111 286.759 349.441 288.351C348.77 289.944 347.787 291.373 346.555 292.549C346.65 293.657 346.536 294.774 346.219 295.836C348.81 294.089 350.788 291.517 351.858 288.505C352.927 285.493 353.031 282.203 352.153 279.124C351.275 276.046 349.464 273.346 346.988 271.426C344.512 269.506 341.506 268.47 338.417 268.472V268.463Z" fill="white"/>
<path opacity="0.5" d="M296.589 227.765C293.768 227.767 291.01 228.634 288.661 230.257C286.311 231.88 284.474 234.187 283.379 236.889C283.903 237.652 284.465 238.386 285.061 239.089C285.634 237.083 286.682 235.257 288.11 233.781C289.538 232.305 291.299 231.225 293.233 230.64C295.166 230.055 297.21 229.984 299.177 230.433C301.144 230.883 302.971 231.838 304.491 233.212C306.01 234.586 307.173 236.335 307.873 238.297C308.574 240.26 308.789 242.374 308.499 244.445C308.209 246.517 307.424 248.479 306.214 250.153C305.005 251.827 303.411 253.159 301.578 254.026C302.226 254.575 302.893 255.115 303.555 255.67C306.328 254.067 308.51 251.553 309.76 248.522C311.01 245.491 311.256 242.114 310.459 238.922C309.663 235.729 307.869 232.902 305.36 230.884C302.851 228.866 299.768 227.771 296.595 227.771L296.589 227.765Z" fill="white"/>
<path opacity="0.5" d="M304.407 186.481C304.375 188.63 303.811 190.734 302.768 192.59C301.725 194.446 300.239 195.991 298.453 197.076C296.668 198.16 294.643 198.747 292.576 198.78C290.508 198.814 288.467 198.292 286.65 197.265C286.146 197.882 285.65 198.498 285.17 199.131C287.355 200.466 289.845 201.168 292.381 201.163C296.064 201.158 299.604 199.681 302.268 197.038C304.932 194.395 306.516 190.787 306.692 186.964C305.903 186.781 305.138 186.623 304.407 186.481Z" fill="white"/>
<path opacity="0.5" d="M371.843 308.369C368.36 308.37 364.998 309.689 362.384 312.081C359.77 314.472 358.083 317.771 357.639 321.361C357.195 324.95 358.025 328.585 359.973 331.586C361.92 334.586 364.853 336.746 368.221 337.662C368.314 336.867 368.419 336.074 368.512 335.273C365.726 334.439 363.323 332.586 361.746 330.057C360.17 327.528 359.524 324.492 359.93 321.508C360.335 318.524 361.763 315.792 363.952 313.815C366.141 311.839 368.943 310.75 371.843 310.75C371.936 310.75 372.04 310.75 372.125 310.75C372.264 309.928 372.394 309.147 372.521 308.377C372.301 308.375 372.072 308.369 371.843 308.369Z" fill="white"/>
<path opacity="0.5" d="M332.367 334.977C332.422 335.836 332.489 336.678 332.564 337.494C335.031 338.278 337.191 339.863 338.727 342.017C340.263 344.171 341.094 346.781 341.098 349.462C341.099 350.411 340.994 351.357 340.785 352.281C341.479 352.377 342.244 352.455 343.084 352.535C343.853 348.735 343.163 344.773 341.162 341.493C339.161 338.213 336.008 335.875 332.373 334.977H332.367Z" fill="white"/>
<path opacity="0.2" d="M280.163 294.472C279.511 294.47 278.859 294.517 278.214 294.614C277.931 295.519 277.633 296.385 277.32 297.211C278.25 296.97 279.205 296.85 280.163 296.853C282.16 296.852 284.125 297.368 285.882 298.354C287.639 299.341 289.132 300.766 290.227 302.502C291.322 304.238 291.983 306.229 292.152 308.297C292.321 310.365 291.992 312.445 291.195 314.348C291.96 314.475 292.731 314.608 293.517 314.736C294.161 313.023 294.49 311.2 294.488 309.361C294.484 305.414 292.973 301.629 290.287 298.838C287.602 296.046 283.961 294.476 280.163 294.472Z" fill="white"/>
<g opacity="0.2">
<path d="M321.165 311.942C318.332 311.942 315.562 311.068 313.207 309.432C310.851 307.796 309.015 305.471 307.931 302.751C306.846 300.03 306.562 297.037 307.115 294.148C307.668 291.26 309.032 288.607 311.035 286.525C313.038 284.442 315.59 283.024 318.369 282.449C321.148 281.875 324.028 282.169 326.645 283.296C329.263 284.422 331.5 286.331 333.075 288.779C334.649 291.227 335.489 294.106 335.49 297.05C335.486 300.998 333.975 304.783 331.29 307.575C328.604 310.366 324.963 311.937 321.165 311.942ZM321.165 284.544C318.785 284.544 316.458 285.277 314.478 286.651C312.499 288.026 310.956 289.979 310.045 292.265C309.134 294.55 308.896 297.066 309.36 299.492C309.824 301.919 310.97 304.147 312.654 305.897C314.337 307.646 316.481 308.838 318.816 309.32C321.15 309.803 323.57 309.555 325.769 308.608C327.968 307.661 329.847 306.057 331.17 304C332.492 301.943 333.197 299.524 333.197 297.05C333.19 293.737 331.92 290.561 329.665 288.219C327.409 285.876 324.353 284.559 321.165 284.555V284.544Z" fill="white"/>
</g>
<path opacity="0.3" d="M289.331 248.014C287.993 248.012 286.662 248.207 285.377 248.596C285.759 249.317 286.14 250.034 286.538 250.747C287.453 250.513 288.392 250.396 289.335 250.398C292.524 250.404 295.581 251.724 297.836 254.068C300.092 256.412 301.362 259.589 301.369 262.904C301.372 265.54 300.567 268.109 299.07 270.236C299.566 270.916 300.058 271.568 300.521 272.196C302.206 270.007 303.262 267.367 303.567 264.581C303.873 261.795 303.414 258.976 302.245 256.448C301.076 253.921 299.244 251.789 296.96 250.297C294.676 248.804 292.032 248.013 289.335 248.014H289.331ZM285.923 277.364C287.038 277.648 288.182 277.792 289.331 277.793C290.4 277.795 291.467 277.669 292.509 277.419C290.316 277.271 288.118 277.252 285.923 277.364Z" fill="white"/>
<path opacity="0.8" d="M288.777 277.298C285.808 277.277 282.842 277.51 279.91 277.992C281.689 297.305 270.224 309.221 270.224 309.221C271.932 310.162 275.468 311.184 280.179 312.223C281.867 309.591 284.201 305.486 286.842 298.834C290.781 288.927 289.953 281.487 288.777 277.298Z" fill="#FEC748"/>
<path opacity="0.8" d="M332.786 339.733C333.379 345.151 334.154 349.197 334.154 349.197C334.154 349.197 330.596 352.108 348.668 352.895C366.741 353.682 366.751 358.187 366.751 358.187C366.703 355.044 366.907 351.112 367.282 346.75C361.787 343.407 352.612 341.903 344.339 341.513C339.451 341.291 335.638 340.551 332.786 339.733Z" fill="#FEC748"/>
<path opacity="0.8" d="M328.678 197.986C318.364 186.869 297.354 185.48 297.354 185.48C295.474 187.58 293.361 189.76 291.226 192.071C297.142 192.178 310.291 194.031 327.004 206.11C327.68 202.527 328.678 197.986 328.678 197.986Z" fill="#FEC748"/>
<path opacity="0.4" d="M361.912 299.171C357.403 315.944 345.387 335.24 353.248 353.205C351.864 353.078 350.344 352.965 348.672 352.895C346.51 352.8 344.662 352.671 343.078 352.529C342.238 352.449 341.473 352.371 340.779 352.274C331.772 351.14 334.156 349.193 334.156 349.193C334.156 349.193 333.147 343.999 332.558 337.482C332.489 336.66 332.422 335.824 332.361 334.965C331.857 327.375 332.118 318.734 335.166 314.51C339.475 308.552 344.784 301.264 346.213 295.813C346.53 294.751 346.645 293.634 346.549 292.526C346.471 291.653 346.144 290.824 345.61 290.145C341.789 285.38 338.986 284.053 338.986 284.053C338.986 284.053 339.008 284.275 339.03 284.67C336.67 282.327 333.1 279.301 328.801 275.814C328.214 275.338 327.611 274.853 326.99 274.36C320.131 268.85 311.726 262.339 303.543 255.637C302.887 255.088 302.22 254.548 301.566 253.993C296.822 250.063 292.191 246.093 288.044 242.225C286.979 241.239 285.978 240.181 285.049 239.057C284.453 238.354 283.891 237.619 283.367 236.856C278.247 229.536 277.042 221.26 277.623 213.64C279.066 208.146 281.885 203.381 285.164 199.094C285.644 198.465 286.14 197.838 286.644 197.228C290.202 192.891 294.116 189.047 297.342 185.443C299.711 185.641 302.067 185.975 304.401 186.444C305.126 186.586 305.891 186.744 306.686 186.927C308.022 187.229 309.453 187.594 310.91 188.032C306.935 191.697 304.189 196.585 303.07 201.984C300.78 212.839 307.656 225.283 330.829 245.399C354.001 265.515 366.747 281.169 361.912 299.171Z" fill="#02594F"/>
<path opacity="0.4" d="M322.438 297.315C326.67 291.152 325.952 279.751 324.996 272.784C313.79 263.853 299.214 252.65 288.058 242.256C278.989 233.807 276.919 223.228 277.637 213.679C276.101 219.551 276.136 226.244 278.89 234.05C287.293 257.882 307.668 281.169 307.668 281.169C295.188 275.081 279.91 277.992 279.91 277.992C280.634 285.646 279.287 293.358 276.022 300.259C280.149 298.798 284.464 297.985 288.823 297.847C304.604 297.315 316.069 306.581 322.438 297.315Z" fill="#014238"/>
<path opacity="0.2" d="M240.819 380.021C238.582 383.616 235.603 386.651 232.499 389.139C232.011 389.538 231.511 389.912 231.033 390.273C227.276 393.039 223.232 395.354 218.975 397.176C217.943 397.622 217.174 397.92 216.73 398.085C216.213 399.63 215.729 401.143 215.279 402.625C214.799 404.167 214.35 405.669 213.933 407.129C213.504 408.61 213.11 410.052 212.735 411.443C210.923 418.222 209.456 425.095 208.341 432.034H206.575C206.707 431.212 206.856 430.304 207.022 429.31C206.795 429.279 206.588 429.158 206.446 428.971C206.303 428.784 206.237 428.546 206.261 428.309C206.261 428.237 206.55 425.367 206.234 419.68C206.19 418.858 206.132 417.977 206.06 417.038C205.797 413.685 205.344 409.59 204.583 404.739C204.54 404.466 204.496 404.185 204.453 403.903C204.2 402.342 203.911 400.706 203.597 398.999C203.532 399.013 203.465 399.023 203.399 399.028C203.26 399.025 203.125 398.987 203.004 398.917C201.534 398.09 200.105 397.187 198.722 396.211C198.26 395.884 197.769 395.529 197.263 395.157C194.237 392.944 191.422 390.435 188.857 387.664C188.461 387.228 188.066 386.785 187.671 386.32C185.32 383.551 183.18 380.362 181.693 376.849C181.693 376.849 181.693 376.849 181.693 376.83C181.641 376.72 181.611 376.6 181.604 376.478C181.598 376.355 181.615 376.232 181.656 376.117C181.696 376.002 181.759 375.896 181.84 375.807C181.921 375.717 182.018 375.646 182.126 375.596C182.235 375.547 182.351 375.521 182.469 375.52C182.588 375.519 182.705 375.543 182.814 375.591C182.923 375.638 183.021 375.708 183.103 375.796C183.186 375.884 183.25 375.988 183.292 376.103C183.389 376.331 183.49 376.557 183.589 376.785C184.763 379.323 186.237 381.699 187.975 383.859C188.578 384.621 189.209 385.357 189.845 386.066C192.359 388.814 195.121 391.305 198.094 393.505C198.6 393.885 199.082 394.241 199.554 394.567C201.187 395.72 202.506 396.538 203.223 396.965C202.742 394.499 202.183 391.889 201.545 389.135C201.347 388.254 201.136 387.364 200.908 386.448C200.497 384.738 200.051 382.988 199.58 381.172C199.185 379.709 198.789 378.219 198.357 376.684C198.323 376.562 198.314 376.433 198.331 376.306C198.347 376.18 198.388 376.058 198.451 375.949C198.565 375.759 198.743 375.619 198.95 375.557C199.131 375.504 199.323 375.51 199.501 375.575C199.629 375.621 199.745 375.698 199.838 375.801C199.931 375.904 199.999 376.029 200.035 376.165C200.646 378.356 201.217 380.479 201.747 382.534C205.372 396.673 206.998 407.455 207.688 415.01C207.767 415.918 207.837 416.791 207.886 417.609C208.052 419.887 208.121 421.794 208.147 423.362C208.671 420.81 209.309 417.948 210.07 414.841C210.402 413.479 210.76 412.072 211.153 410.619C212.071 407.166 213.146 403.47 214.395 399.593C217.066 391.281 220.223 383.147 223.85 375.236C223.92 375.08 224.032 374.948 224.172 374.856C224.312 374.764 224.475 374.716 224.64 374.716C224.77 374.716 224.899 374.747 225.016 374.807C225.117 374.855 225.209 374.924 225.284 375.01C225.359 375.095 225.416 375.196 225.453 375.306C225.496 375.419 225.516 375.541 225.511 375.663C225.507 375.785 225.478 375.905 225.427 376.015C222.46 382.485 219.812 389.109 217.493 395.86C218.157 395.578 218.979 395.225 219.922 394.779C223.63 393.045 227.16 390.927 230.46 388.457C230.966 388.085 231.464 387.687 231.962 387.269C234.749 384.97 237.38 382.238 239.355 379.051C239.415 378.947 239.494 378.855 239.589 378.783C239.683 378.711 239.791 378.66 239.905 378.632C240.019 378.604 240.138 378.6 240.253 378.621C240.369 378.642 240.479 378.686 240.578 378.752C240.676 378.818 240.761 378.904 240.827 379.005C240.893 379.106 240.939 379.219 240.962 379.339C240.985 379.458 240.984 379.581 240.961 379.701C240.937 379.82 240.89 379.933 240.823 380.033L240.819 380.021Z" fill="#F2A408"/>
<path opacity="0.2" d="M246.688 408.865L245.474 409.574L243.648 410.628L231.266 417.819L229.649 418.755L228.53 419.401L227.002 420.292L223.342 422.417C223.215 422.494 223.07 422.534 222.923 422.534C222.784 422.531 222.648 422.496 222.525 422.43C222.402 422.364 222.295 422.269 222.213 422.154L220.711 424.451L215.769 432.026H213.656L219.841 422.575L224.114 416.035L225.162 414.426L228.072 409.987L229.455 407.852L235.243 398.993C235.271 398.95 235.304 398.911 235.34 398.876C235.483 398.722 235.674 398.625 235.878 398.603C236.083 398.582 236.289 398.636 236.459 398.756C236.649 398.894 236.779 399.103 236.821 399.34C236.864 399.576 236.815 399.821 236.686 400.02L236.405 400.445L229.922 410.373L228.524 412.508L226.235 416.013L225.188 417.611L223.438 420.282L226.008 418.792L227.536 417.911L229.315 416.867L230.932 415.932L243.567 408.594L245.557 407.441L245.838 407.277C245.938 407.218 246.048 407.181 246.161 407.167C246.275 407.152 246.39 407.161 246.501 407.194C246.611 407.226 246.714 407.28 246.804 407.353C246.895 407.427 246.97 407.518 247.026 407.622C247.082 407.726 247.118 407.84 247.132 407.958C247.146 408.076 247.137 408.196 247.106 408.311C247.075 408.425 247.023 408.533 246.952 408.626C246.882 408.72 246.794 408.798 246.694 408.857L246.688 408.865Z" fill="#F2A408"/>
<path opacity="0.2" d="M221.468 400.571C217.317 385.835 208.317 378.844 199.491 375.643L199.576 378.821L198.44 375.945L198.147 375.193C191.239 372.976 184.591 372.97 180.618 373.27C179.674 374.553 178.807 375.895 178.021 377.289H178.011C173.637 385.104 171.946 394.231 173.215 403.176V403.186C173.259 403.531 173.31 403.876 173.371 404.213C173.367 404.234 173.367 404.256 173.371 404.277C173.641 405.911 174.014 407.525 174.488 409.107C174.825 410.275 175.221 411.424 175.674 412.549C175.935 413.22 176.216 413.884 176.52 414.548C178.414 418.668 180.974 422.421 184.089 425.642C184.089 425.653 184.089 425.653 184.089 425.661C185.189 426.801 186.357 427.868 187.586 428.856C187.823 429.061 188.058 429.236 188.303 429.427C188.942 429.926 189.604 430.399 190.28 430.853C190.873 431.263 191.494 431.66 192.114 432.034H196.815L196.342 434.214C196.886 434.45 197.435 434.676 197.987 434.886L198.258 433.641L198.606 432.034H208.341C208.297 432.342 208.252 432.65 208.2 432.924C208.463 432.634 208.698 432.334 208.926 432.034H217.724C222.144 426.129 225.836 416.045 221.468 400.571Z" fill="#F2A408"/>
<path d="M208.934 432.034H158.22C157.337 430.907 156.531 429.717 155.809 428.473C155.574 428.101 155.364 427.719 155.153 427.329C151.886 421.283 150.478 414.344 151.117 407.442C151.756 400.541 154.411 394.007 158.726 388.72L166.983 397.76L168.835 399.786L167.742 397.115L162.658 384.673C165.361 382.333 168.409 380.46 171.683 379.125C173.725 378.287 175.845 377.672 178.009 377.291H178.019C179.231 377.063 180.457 376.918 181.687 376.855C182.318 376.808 182.946 376.791 183.575 376.791C185.308 376.79 187.038 376.936 188.748 377.227L187.957 383.865L187.661 386.331L187.426 388.338L187.19 390.364L188.299 388.556L188.859 387.656L189.847 386.057L194.374 378.702C196.177 379.356 197.92 380.177 199.582 381.155C200.323 381.58 201.041 382.034 201.756 382.526C207.292 386.367 211.559 391.883 213.98 398.327C214.138 398.738 214.286 399.149 214.417 399.572C214.76 400.573 215.055 401.591 215.301 402.623C216.491 407.704 216.536 413.002 215.432 418.104C214.327 423.205 212.103 427.973 208.934 432.034Z" fill="#7BD6CB"/>
<path opacity="0.5" d="M201.909 387.504C201.804 388.05 201.681 388.595 201.533 389.129C201.038 391.002 200.371 392.821 199.543 394.561C199.288 395.124 199.009 395.669 198.72 396.205C195.696 401.918 191.547 406.377 189.38 408.501C188.898 408.974 188.515 409.323 188.262 409.555C188.262 409.855 188.287 410.147 188.295 410.437C188.382 412.286 188.493 414.059 188.61 415.778C188.671 416.668 188.742 417.539 188.807 418.394C189.203 423.107 189.734 427.311 190.276 430.844C190.337 431.243 190.398 431.644 190.46 432.026H187.01C186.313 430.327 185.36 428.192 184.103 425.64C182.565 422.558 180.545 418.86 177.975 414.597C177.866 414.661 177.743 414.695 177.617 414.696C177.583 414.7 177.547 414.7 177.513 414.696C177.426 414.696 177.094 414.64 176.542 414.56C173.083 414.014 161.312 411.663 154.008 404.061C153.843 403.892 153.75 403.661 153.749 403.42C153.749 403.179 153.84 402.947 154.003 402.776C154.166 402.605 154.388 402.508 154.62 402.507C154.852 402.507 155.075 402.601 155.239 402.771C161.46 409.247 171.448 411.754 175.686 412.561C176.139 412.643 176.524 412.717 176.831 412.766C176.095 411.593 175.317 410.378 174.496 409.124C172.355 405.863 169.91 402.344 167.113 398.57C167.029 398.456 166.974 398.324 166.951 398.183C166.928 398.042 166.939 397.897 166.983 397.762C167.028 397.577 167.133 397.414 167.279 397.3C167.412 397.191 167.573 397.127 167.742 397.117C167.886 397.103 168.032 397.127 168.165 397.187C168.298 397.248 168.415 397.342 168.503 397.462C170.258 399.833 171.884 402.107 173.379 404.283C180.841 415.109 185.166 423.419 187.586 428.86C187.943 429.667 188.268 430.413 188.546 431.093C188.469 430.557 188.38 430.002 188.303 429.431C187.769 425.745 187.271 421.439 186.92 416.652C186.848 415.807 186.789 414.944 186.736 414.073C186.578 411.513 186.457 408.824 186.404 406.028C186.378 404.536 186.36 403.011 186.36 401.466C186.378 397.516 186.518 393.384 186.815 389.125C186.825 388.941 186.891 388.765 187.002 388.622C187.113 388.479 187.265 388.375 187.435 388.326C187.536 388.29 187.644 388.277 187.75 388.289C187.978 388.312 188.19 388.426 188.339 388.607C188.489 388.788 188.565 389.022 188.552 389.26C188.157 395.013 188.056 400.505 188.157 405.645C188.157 406.153 188.175 406.673 188.193 407.162C188.333 407.026 188.471 406.88 188.629 406.726C190.804 404.509 194.559 400.322 197.271 395.155C197.56 394.61 197.831 394.066 198.092 393.511C199.048 391.492 199.758 389.356 200.207 387.154C200.242 386.977 200.328 386.815 200.452 386.689C200.577 386.563 200.735 386.478 200.906 386.446C201.015 386.417 201.128 386.417 201.237 386.446C201.459 386.496 201.655 386.634 201.78 386.832C201.906 387.03 201.952 387.271 201.909 387.504Z" fill="#01C2AF"/>
<path opacity="0.5" d="M215.103 408.464L212.731 411.462L210.066 414.823L207.892 417.595L206.247 419.674L200.713 426.676C200.632 426.78 200.529 426.864 200.413 426.922C200.297 426.981 200.17 427.011 200.041 427.013C199.936 427.009 199.832 426.988 199.734 426.949L198.922 430.672L198.623 432.026H196.833L197.086 430.863L197.732 427.902L202.915 404.226C202.966 403.992 203.104 403.789 203.299 403.661C203.494 403.533 203.73 403.491 203.954 403.544C204.162 403.587 204.346 403.71 204.47 403.889C204.543 403.994 204.594 404.113 204.62 404.24C204.646 404.367 204.645 404.498 204.619 404.624L204.601 404.725L200.302 424.325L206.077 417.023L207.694 414.987L211.171 410.584L213.775 407.297C213.827 407.233 213.886 407.175 213.95 407.125C214.124 407.004 214.334 406.952 214.541 406.978C214.749 407.004 214.94 407.106 215.082 407.266C215.223 407.426 215.304 407.633 215.312 407.851C215.319 408.068 215.251 408.28 215.121 408.45L215.103 408.464Z" fill="#01C2AF"/>
<path opacity="0.5" d="M167.744 428.272L179.086 432.574H174.935L167.347 429.698L167.248 429.661C167.08 429.597 166.942 429.47 166.861 429.304C166.781 429.139 166.764 428.947 166.815 428.769C166.816 428.751 166.822 428.734 166.831 428.718C166.862 428.626 166.911 428.541 166.974 428.469C167.037 428.397 167.113 428.338 167.198 428.297C167.283 428.255 167.375 428.232 167.468 428.228C167.562 428.223 167.656 428.238 167.744 428.272Z" fill="#01C2AF"/>
<path opacity="0.5" d="M162.065 418.591L175.19 432.034H172.707L160.833 419.881C160.752 419.797 160.687 419.697 160.643 419.587C160.598 419.477 160.575 419.359 160.575 419.24C160.574 419.12 160.597 419.002 160.64 418.892C160.684 418.781 160.748 418.681 160.829 418.596C160.909 418.511 161.005 418.444 161.111 418.398C161.217 418.352 161.331 418.328 161.446 418.327C161.56 418.327 161.674 418.35 161.781 418.395C161.887 418.44 161.983 418.507 162.065 418.591Z" fill="#01C2AF"/>
<path d="M281.633 432.574H262.586" stroke="#FEC748" stroke-miterlimit="10"/>
<path opacity="0.7" d="M471.334 432.391H95.475V434.966H471.334V432.391Z" fill="url(#paint0_linear_48_30)"/>
<path opacity="0.7" d="M390.641 434.415C393.182 434.415 395.242 432.274 395.242 429.632C395.242 426.991 393.182 424.849 390.641 424.849C388.099 424.849 386.039 426.991 386.039 429.632C386.039 432.274 388.099 434.415 390.641 434.415Z" fill="#F9D58C"/>
<path opacity="0.7" d="M295.083 434.415C298.601 434.415 301.454 431.45 301.454 427.793C301.454 424.136 298.601 421.172 295.083 421.172C291.564 421.172 288.712 424.136 288.712 427.793C288.712 431.45 291.564 434.415 295.083 434.415Z" fill="#F9D58C"/>
<path d="M308.532 417.492C309.704 417.492 310.655 416.504 310.655 415.285C310.655 414.067 309.704 413.079 308.532 413.079C307.359 413.079 306.409 414.067 306.409 415.285C306.409 416.504 307.359 417.492 308.532 417.492Z" fill="#F9D58C"/>
<path d="M237.75 342.448C238.922 342.448 239.872 341.46 239.872 340.241C239.872 339.022 238.922 338.034 237.75 338.034C236.577 338.034 235.627 339.022 235.627 340.241C235.627 341.46 236.577 342.448 237.75 342.448Z" fill="#F9D58C"/>
<path d="M300.746 330.677C301.918 330.677 302.869 329.689 302.869 328.47C302.869 327.252 301.918 326.264 300.746 326.264C299.573 326.264 298.623 327.252 298.623 328.47C298.623 329.689 299.573 330.677 300.746 330.677Z" fill="#F9D58C"/>
<path d="M290.258 371.597C290.24 371.84 290.153 372.071 290.009 372.263C289.865 372.454 289.669 372.597 289.447 372.673C289.225 372.749 288.986 372.756 288.761 372.691C288.535 372.627 288.333 372.494 288.18 372.311C288.026 372.127 287.929 371.9 287.899 371.659C287.869 371.418 287.909 371.173 288.012 370.955C288.116 370.738 288.28 370.556 288.482 370.435C288.685 370.313 288.917 370.257 289.151 370.272C289.307 370.283 289.461 370.325 289.601 370.398C289.742 370.47 289.868 370.571 289.971 370.694C290.074 370.818 290.152 370.961 290.201 371.116C290.251 371.271 290.27 371.435 290.258 371.597Z" fill="#F9D58C"/>
<path d="M277.787 338.626C277.768 338.868 277.682 339.1 277.537 339.291C277.393 339.482 277.197 339.624 276.975 339.7C276.753 339.776 276.514 339.782 276.289 339.717C276.064 339.653 275.862 339.52 275.708 339.337C275.555 339.153 275.458 338.926 275.428 338.685C275.399 338.444 275.438 338.199 275.542 337.982C275.646 337.764 275.809 337.583 276.012 337.461C276.214 337.34 276.447 337.283 276.68 337.299C276.837 337.309 276.99 337.352 277.131 337.425C277.272 337.497 277.398 337.598 277.501 337.722C277.604 337.845 277.682 337.989 277.731 338.144C277.78 338.299 277.799 338.463 277.787 338.626Z" fill="#F9D58C"/>
<path d="M316.01 363.64C315.991 363.882 315.904 364.114 315.76 364.305C315.616 364.496 315.42 364.638 315.198 364.714C314.976 364.79 314.737 364.796 314.512 364.731C314.286 364.667 314.084 364.534 313.931 364.351C313.778 364.167 313.681 363.94 313.651 363.699C313.621 363.458 313.661 363.214 313.765 362.996C313.869 362.778 314.032 362.597 314.234 362.476C314.437 362.354 314.669 362.297 314.903 362.313C315.06 362.323 315.213 362.366 315.354 362.439C315.495 362.511 315.621 362.612 315.724 362.736C315.827 362.859 315.905 363.003 315.954 363.158C316.003 363.313 316.022 363.477 316.01 363.64Z" fill="#F9D58C"/>
<path d="M220.537 343.273C220.518 343.516 220.431 343.747 220.287 343.938C220.143 344.129 219.947 344.272 219.725 344.347C219.503 344.423 219.264 344.429 219.039 344.365C218.813 344.3 218.611 344.168 218.458 343.984C218.305 343.8 218.208 343.574 218.178 343.333C218.148 343.092 218.188 342.847 218.292 342.629C218.396 342.411 218.559 342.23 218.761 342.109C218.964 341.987 219.196 341.931 219.43 341.946C219.746 341.97 220.04 342.123 220.247 342.372C220.455 342.621 220.559 342.945 220.537 343.273Z" fill="#F9D58C"/>
<path d="M294.375 407.192C294.357 407.435 294.27 407.666 294.125 407.857C293.981 408.048 293.785 408.191 293.563 408.266C293.341 408.342 293.102 408.348 292.877 408.284C292.652 408.219 292.45 408.087 292.297 407.903C292.143 407.719 292.046 407.493 292.016 407.252C291.987 407.011 292.026 406.766 292.13 406.548C292.234 406.33 292.397 406.149 292.6 406.028C292.802 405.906 293.035 405.85 293.268 405.865C293.425 405.876 293.578 405.918 293.719 405.991C293.86 406.063 293.986 406.164 294.089 406.288C294.192 406.411 294.27 406.555 294.319 406.71C294.369 406.866 294.387 407.029 294.375 407.192Z" fill="#F9D58C"/>
<path d="M326.626 424.705C326.608 424.948 326.521 425.179 326.377 425.37C326.232 425.561 326.037 425.703 325.815 425.779C325.592 425.855 325.354 425.861 325.128 425.797C324.903 425.732 324.701 425.599 324.548 425.416C324.395 425.232 324.297 425.006 324.268 424.765C324.238 424.524 324.278 424.279 324.381 424.061C324.485 423.843 324.649 423.662 324.851 423.541C325.054 423.419 325.286 423.363 325.519 423.378C325.676 423.388 325.83 423.431 325.971 423.504C326.112 423.576 326.237 423.677 326.34 423.801C326.443 423.924 326.522 424.068 326.571 424.223C326.62 424.379 326.639 424.542 326.626 424.705Z" fill="#F9D58C"/>
<path opacity="0.2" d="M179.707 286.535C186.744 286.535 192.448 273.195 192.448 256.738C192.448 240.282 186.744 226.941 179.707 226.941C172.67 226.941 166.965 240.282 166.965 256.738C166.965 273.195 172.67 286.535 179.707 286.535Z" fill="#F9D58C"/>
<defs>
<linearGradient id="paint0_linear_48_30" x1="95.475" y1="433.678" x2="471.334" y2="433.678" gradientUnits="userSpaceOnUse">
<stop stop-color="#FFFBF1"/>
<stop offset="0.5" stop-color="#FEC748"/>
<stop offset="1" stop-color="#FFEEC7"/>
</linearGradient>
</defs>
</svg>
