<svg width="255" height="126" viewBox="0 0 255 126" fill="none" xmlns="http://www.w3.org/2000/svg">
<path opacity="0.09" d="M23.4313 110.328C23.4313 49.3957 72.827 0 133.759 0C194.692 0 244.087 49.3957 244.087 110.328" fill="#5F2B9E"/>
<path d="M247.041 125.306H11.1961C7.00193 125.306 3.60181 121.905 3.60181 117.711C3.60181 113.517 7.00193 110.117 11.1961 110.117H247.041C251.235 110.117 254.635 113.517 254.635 117.711C254.635 121.905 251.235 125.306 247.041 125.306Z" fill="#D3D3D3"/>
<path d="M197.268 98.0935C197.268 98.0935 198.687 101.627 198.971 102.21C199.205 102.691 199.668 102.996 200.107 103.301C200.248 103.399 200.395 103.629 200.52 103.823C200.62 103.979 200.625 104.169 200.561 104.343C199.446 107.382 196.043 108.604 195.963 108.375C195.819 107.964 196.324 107.136 197.038 106.721C197.756 106.305 198.17 105.509 198.202 104.679C198.227 104.019 198.081 103.364 197.779 102.776L196.392 100.145L197.268 98.0935ZM192.373 102.517L191.523 106.292C191.264 107.447 191.427 108.656 191.983 109.701C192.057 109.838 192.1 109.99 192.109 110.145C192.119 110.301 192.095 110.456 192.039 110.601C191.983 110.747 191.897 110.878 191.785 110.987C191.674 111.095 191.54 111.179 191.394 111.231C189.379 111.95 185.471 113.317 185.297 113.169C184.409 112.417 186.757 111.176 188.492 109.872C189.662 108.992 190.11 104.893 190.214 101.75L192.075 102.218C192.219 102.259 192.332 102.372 192.373 102.517Z" fill="#FA968C"/>
<path d="M188.887 110.945C188.052 111.22 187.138 111.309 186.3 111.412C186.204 111.424 186.112 111.461 186.035 111.52C185.231 112.143 184.826 112.77 185.297 113.169C185.486 113.329 190.077 111.704 191.867 111.061C191.955 111.03 192.035 110.979 192.102 110.914C192.168 110.849 192.22 110.769 192.253 110.682C192.287 110.595 192.301 110.501 192.295 110.408C192.289 110.315 192.262 110.224 192.218 110.142L191.877 109.503C190.94 110.099 189.944 110.598 188.887 110.945V110.945ZM190.789 60.5019C193.008 60.8049 194.899 63.3633 194.508 66.22C194.284 67.8617 192.757 73.7375 191.077 78.3827C190.432 80.1652 190.695 82.1866 191.903 83.6476C192.1 83.8856 192.271 84.132 192.407 84.3822C193.107 85.6719 195.803 93.2915 197.386 98.3763C197.26 99.0421 196.863 99.8855 196.364 100.179C193.58 95.8618 189.052 87.9802 188.307 86.6081C187.893 85.8462 187.441 84.9652 187.111 84.1374C185.308 81.7511 185.657 68.4202 186.019 65.7698C186.409 62.9131 188.569 60.199 190.789 60.5019V60.5019ZM190.184 38.6701C190.184 38.6701 188.261 39.8797 188.495 41.5099C188.495 41.5099 187.468 40.783 187.236 38.2781C187.075 36.5428 190.184 38.6701 190.184 38.6701V38.6701Z" fill="#0B4870"/>
<path d="M189.598 48.6021C189.574 48.9115 189.541 49.22 189.498 49.5273C189.416 49.8433 189.348 50.1585 189.227 50.4644C188.976 51.0749 188.623 51.668 188.162 52.1165C187.249 53.0434 186.155 53.5038 185.151 53.754C184.134 53.997 183.153 54.037 182.205 53.9902C181.273 53.94 180.349 53.7949 179.446 53.5573C178.556 53.327 177.69 53.0108 176.861 52.6131C176.032 52.2161 175.235 51.733 174.515 51.1208C173.801 50.5112 173.141 49.7669 172.739 48.8447C172.331 47.93 172.263 46.8406 172.566 45.9276C172.608 45.7964 172.698 45.6857 172.818 45.6175C172.937 45.5493 173.078 45.5285 173.213 45.5593C173.347 45.5901 173.465 45.6701 173.543 45.7836C173.621 45.8972 173.654 46.0359 173.635 46.1723L173.634 46.177C173.443 47.6401 174.417 48.7949 175.674 49.5433C176.948 50.288 178.455 50.7394 179.96 50.9044C181.453 51.0656 183.009 50.9955 184.211 50.5382C184.807 50.3213 185.265 49.9969 185.485 49.6813C185.707 49.3691 185.793 49.0822 185.763 48.6025L185.761 48.562C185.737 48.057 185.913 47.563 186.25 47.1867C186.588 46.8104 187.06 46.5821 187.565 46.5511C188.069 46.5202 188.566 46.6891 188.947 47.0214C189.328 47.3536 189.563 47.8225 189.601 48.3266C189.606 48.4184 189.605 48.5104 189.598 48.6021V48.6021Z" fill="#FAB9AF"/>
<path d="M188.032 57.0478C187.263 54.7298 185.716 49.8214 185.848 48.2169C185.889 47.7216 186.115 47.2599 186.481 46.9236C186.847 46.5873 187.326 46.401 187.823 46.4019H194.514C195.047 46.4012 195.56 46.6086 195.942 46.9799C196.325 47.3513 196.548 47.8573 196.563 48.3903C196.62 50.3281 195.727 54.7391 195.224 57.0473H188.032V57.0478Z" fill="#2A94F4"/>
<path d="M190.254 102.564C190.202 102.532 190.16 102.486 190.132 102.433C190.104 102.379 190.091 102.318 190.093 102.258C190.235 97.3366 190.534 91.0634 190.642 89.8609C190.654 89.7234 190.671 89.5879 190.691 89.4546C189.637 83.637 189.477 71.13 189.373 68.9399C189.235 66.06 190.969 62.8105 193.207 62.7038C195.444 62.5966 197.873 64.9125 198.591 67.5515C199.065 69.2927 197.232 78.5589 195.246 85.2744C194.828 86.6882 194.762 88.175 194.973 89.6339C195.118 90.6431 195.162 91.6827 195.09 92.4776C194.983 93.6606 193.658 98.4783 192.415 102.603C192.398 102.662 192.366 102.716 192.321 102.758C192.277 102.8 192.222 102.83 192.162 102.844C191.519 102.985 190.848 102.926 190.254 102.564V102.564Z" fill="#0B4870"/>
<path d="M195.99 59.9863C195.644 59.015 195.54 57.974 195.686 56.9533C196.023 54.5818 196.613 50.1146 196.559 48.2182C196.544 47.731 196.341 47.2686 195.991 46.9294C195.641 46.5901 195.172 46.4009 194.685 46.4019H193.693C193.314 47.2782 192.514 47.9553 191.269 47.9553C190.026 47.9553 189.225 47.2782 188.847 46.4019H187.915C188.928 48.5696 188.564 51.4293 186.822 53.0979C187.121 54.1661 187.387 55.2428 187.622 56.3267C187.897 57.5908 187.777 58.9088 187.278 60.1024C186.423 62.1549 185.745 65.4462 185.947 66.7503C192.985 68.7455 197.853 65.2146 197.853 65.2146L195.99 59.9863Z" fill="#2A94F4"/>
<path d="M190.184 46.863L193.22 46.544L192.259 43.2224L190.296 43.4654L190.184 46.863Z" fill="#FAB9AF"/>
<path d="M190.296 43.4654L192.259 43.2224L192.559 44.2594C192.12 44.7551 191.555 45.8255 190.84 45.8255C190.621 45.8259 190.406 45.7627 190.221 45.6437L190.296 43.4654V43.4654Z" fill="#FA968C"/>
<path d="M190.228 45.0712C190.894 45.0712 191.615 44.7375 192.609 43.87C193.179 43.3718 193.601 42.503 193.601 41.9162V38.6705H188.604C188.604 38.6705 188.229 40.394 188.593 42.1044C188.866 43.3865 189.704 45.0712 190.228 45.0712V45.0712Z" fill="#FAB9AF"/>
<path d="M192.754 41.3019C192.754 41.9351 193.057 42.4486 193.431 42.4486C193.805 42.4486 194.218 41.6187 194.218 40.985C194.218 40.3518 193.806 40.1552 193.431 40.1552C193.057 40.1552 192.754 40.6686 192.754 41.3019V41.3019Z" fill="#FAB9AF"/>
<path d="M194.217 39.0632C194.217 38.5766 194.024 38.1099 193.68 37.7658C193.335 37.4217 192.869 37.2284 192.382 37.2284L190.695 37.2292C190.218 37.2293 189.749 37.1056 189.335 36.8702C188.739 36.5327 187.987 36.6449 187.581 37.1959C187.142 37.7912 186.953 38.5882 188.066 39.3265C188.619 39.6936 189.427 39.2869 189.967 39.4632C190 39.4619 190.029 39.4565 190.064 39.4565H191.551C192.068 39.4565 192.463 39.8788 192.478 40.3952C192.482 40.5529 192.548 40.7026 192.662 40.8125C192.775 40.9224 192.926 40.9838 193.084 40.9838H193.15L193.388 40.2209L194.218 41.3398V39.0632H194.217Z" fill="#0B4870"/>
<path d="M184.722 61.6731C184.722 61.6731 186.46 61.3896 186.722 61.8908C186.984 62.3925 187.068 62.7773 186.353 63.1861C185.637 63.5953 184.46 63.8156 183.728 63.8063C182.996 63.797 181.775 63.2637 181.683 63.1203C181.344 62.5984 182.669 62.7541 183.314 62.7984C183.959 62.8427 184.692 62.8283 184.625 62.5119C184.558 62.1955 183.317 62.2039 183.121 61.8664C182.925 61.5297 184.722 61.6731 184.722 61.6731V61.6731Z" fill="#FAB9AF"/>
<path d="M188.976 38.6131C189.144 39.3548 188.897 39.7602 191.327 40.9175C193.758 42.0748 194.527 41.5803 195.286 42.8262C195.286 42.8262 194.954 40.7623 193.612 40.0535C192.269 39.3451 189.941 38.8818 189.195 37.2415C189.195 37.2419 188.862 38.1064 188.976 38.6131V38.6131Z" fill="#0B4870"/>
<path d="M196.777 47.4212C197.133 47.8942 197.466 48.3842 197.775 48.8894C198.082 49.3784 198.37 49.8786 198.641 50.3889C199.172 51.4183 199.648 52.4904 200.019 53.6371C200.376 54.7859 200.644 56.0154 200.618 57.3545C200.583 58.0279 200.506 58.7181 200.272 59.4028L200.091 59.9117C200.021 60.0787 199.925 60.2386 199.841 60.3998C199.748 60.5576 199.675 60.7255 199.562 60.8698L199.227 61.3018C198.768 61.8642 198.206 62.3043 197.631 62.6503C197.053 62.9802 196.455 63.246 195.862 63.4088L195.418 63.5447C195.27 63.586 195.123 63.6059 194.976 63.6371C194.682 63.6924 194.388 63.7522 194.096 63.8003L193.227 63.8733L192.794 63.9075L192.367 63.9105C190.088 63.9442 187.905 63.6168 185.772 63.1548C185.639 63.1263 185.52 63.0488 185.44 62.9377C185.36 62.8265 185.325 62.6896 185.341 62.5537C185.356 62.4177 185.422 62.2924 185.525 62.2022C185.628 62.1121 185.761 62.0635 185.897 62.0659L185.908 62.0663C188.039 62.1001 190.166 62.0727 192.174 61.752L192.55 61.6942L192.914 61.6086L193.638 61.4419L194.324 61.2242C194.436 61.1858 194.555 61.1576 194.661 61.112L194.973 60.9698C195.813 60.607 196.491 60.0977 196.85 59.4995C197.211 58.905 197.352 58.2148 197.296 57.3984C197.231 56.5841 196.982 55.6981 196.635 54.8222C196.293 53.9417 195.847 53.0646 195.343 52.2123C195.094 51.782 194.833 51.3588 194.56 50.9432C194.294 50.5408 194.019 50.1447 193.735 49.7552L193.703 49.7117C193.408 49.3035 193.285 48.7956 193.361 48.2978C193.438 47.8 193.707 47.3523 194.111 47.0514C194.515 46.7505 195.021 46.6206 195.52 46.6898C196.019 46.759 196.47 47.0217 196.777 47.4212Z" fill="#FAB9AF"/>
<path d="M189.444 38.7515C189.444 38.7515 189.352 41.2492 187.169 42.4491C187.169 42.4491 188.131 40.561 188.066 39.327C188 38.0921 189.588 37.8984 189.444 38.7515ZM201.365 105.21C201.509 105.044 201.512 104.798 201.37 104.63C201.254 104.493 200.946 104.115 200.714 103.832C200.691 103.804 200.661 103.783 200.628 103.77C200.594 103.757 200.557 103.752 200.521 103.757C200.485 103.762 200.451 103.776 200.422 103.798C200.393 103.819 200.37 103.848 200.356 103.881C199.58 105.504 198.284 106.77 196.595 107.002C196.047 107.373 195.697 108.209 195.811 108.535C195.838 108.611 196.588 108.622 197.376 108.171C200.876 106.168 201.365 105.21 201.365 105.21Z" fill="#0B4870"/>
<path d="M183.98 47.5861C183.97 49.7496 182.898 51.2162 180.968 52.0916C179.715 52.6599 179.63 53.0599 180.607 54.064C181.95 55.4466 183.279 56.8444 184.641 58.2084C185.352 58.9197 185.262 59.51 184.56 60.1618C183.073 61.5469 181.601 62.9479 180.143 64.3648C179.191 65.2879 179.228 65.4533 180.397 66.0672C182.782 67.3202 183.711 69.7348 182.711 72.0819C181.645 74.5859 178.958 75.8668 176.492 75.0044C175.175 74.5441 174.217 73.6602 173.677 72.3485C173.208 71.2115 172.967 71.1693 172.076 72.0211C170.556 73.4737 169.017 74.9078 167.517 76.3811C166.811 77.0751 166.282 77.0633 165.599 76.3017C164.267 74.8162 162.823 73.4324 161.468 71.9671C160.367 70.7765 160.505 70.3284 162.034 69.7812C164.239 68.9918 165.802 66.4743 165.362 64.4205C164.856 62.0578 162.771 60.3074 160.459 60.5002C158.371 60.6744 156.899 61.8334 156.076 63.7851C155.472 65.2175 155.126 65.2858 154.033 64.1589C152.57 62.6493 151.143 61.1035 149.665 59.6095C149.039 58.9775 149.13 58.5016 149.735 57.9362C151.297 56.4764 152.836 54.9922 154.372 53.5062C155.3 52.6093 155.272 52.4738 154.14 51.892C151.924 50.7537 150.929 48.5987 151.562 46.3115C152.172 44.1104 154.341 42.4241 156.569 42.5756C158.54 42.7097 159.984 43.7252 160.764 45.5858C161.178 46.5722 161.47 46.6684 162.26 45.9263C163.742 44.534 165.182 43.097 166.651 41.6912C167.655 40.7314 167.907 40.7327 168.881 41.7377C170.221 43.1219 171.53 44.537 172.871 45.9213C173.717 46.7933 174.092 46.7283 174.635 45.6044C175.332 44.1611 176.421 43.1953 177.974 42.8004C181.115 42.0026 183.99 44.3037 183.98 47.5861V47.5861Z" fill="#FFBE55"/>
<path d="M171.912 47.2558C171.912 47.2558 173.655 47.0056 173.755 46.4487C173.855 45.8918 173.82 45.4994 173.014 45.3235C172.209 45.1475 171.02 45.2901 170.324 45.5184C169.628 45.7466 168.624 46.6213 168.578 46.7858C168.412 47.3853 169.629 46.8398 170.231 46.6039C170.833 46.3685 171.536 46.1622 171.568 46.4841C171.599 46.806 170.412 47.1701 170.326 47.5507C170.24 47.9313 171.912 47.2558 171.912 47.2558Z" fill="#FAB9AF"/>
<path d="M134.317 85.5719C134.337 84.261 134.423 82.9472 134.357 81.6406C134.304 80.6056 134.744 80.2879 135.689 80.3124C138.099 80.3748 140.509 80.4116 142.919 80.447C144.472 80.4698 144.721 80.115 144.225 78.6341C143.315 75.9111 144.13 73.1742 146.312 71.622C148.42 70.1221 151.363 70.2044 153.408 71.8199C155.497 73.4708 156.166 76.2786 155.1 78.9307C154.595 80.1879 154.875 80.6339 156.238 80.6647C158.606 80.7183 160.974 80.7343 163.342 80.7875C164.846 80.8212 165.121 81.1157 165.097 82.5881C165.056 85.1251 164.998 87.662 164.965 90.1989C164.948 91.4498 165.192 91.6228 166.38 91.1693C168.715 90.2774 170.919 90.6942 172.622 92.3616C174.292 93.9973 174.698 96.2186 173.982 98.4876C173.258 100.779 171.65 102.154 169.257 102.562C168.179 102.746 167.164 102.502 166.167 102.1C165.016 101.635 164.739 101.812 164.702 103.067C164.623 105.688 164.533 108.309 164.523 110.93C164.519 112.087 164.07 112.502 162.922 112.457C160.387 112.358 157.849 112.363 155.312 112.299C153.741 112.259 153.43 111.721 154.117 110.322C156.061 106.371 153.886 102.036 149.745 101.607C145.531 101.17 142.383 105.429 143.891 109.532C144.022 109.888 144.226 110.217 144.348 110.576C144.644 111.442 144.364 112.063 143.412 112.064C140.537 112.066 137.661 112.01 134.787 111.941C134.077 111.924 133.804 111.505 133.827 110.753C133.912 108.006 133.895 105.255 133.996 102.509C134.036 101.434 133.637 101.143 132.658 101.378C131.832 101.577 130.981 101.556 130.154 101.447C126.962 101.028 125.206 98.6673 125.553 95.3297C125.854 92.4371 128.285 90.4609 131.304 90.6541C134.224 90.8415 134.224 90.8414 134.272 87.8539C134.285 87.0928 134.296 86.3317 134.307 85.5706C134.311 85.5716 134.314 85.5721 134.317 85.5719ZM103.44 54.2231C103.458 52.9971 103.472 51.771 103.497 50.5454C103.529 48.9995 103.802 48.7299 105.389 48.7599C107.629 48.8021 109.868 48.8759 112.108 48.9253C113.813 48.9624 114.079 48.5957 113.548 47.0153C112.73 44.5771 113.207 42.387 115.036 40.6108C116.769 38.9286 118.902 38.5595 121.15 39.3902C123.475 40.2492 124.674 42.0431 124.951 44.4771C125.064 45.4682 124.831 46.4078 124.487 47.3254C123.96 48.7333 124.237 49.14 125.776 49.167C128.101 49.2075 130.426 49.2244 132.751 49.2771C134.242 49.3109 134.435 49.5239 134.412 50.9964C134.373 53.5329 134.315 56.0689 134.278 58.6059C134.26 59.8711 134.517 60.0821 135.679 59.6357C136.828 59.1944 137.993 59.1054 139.167 59.3585C142.46 60.0694 144.353 63.4468 143.374 66.7946C142.386 70.1686 138.998 71.8899 135.764 70.6601C134.217 70.0715 134.066 70.1787 134.035 71.8836C133.995 74.1661 133.915 76.4494 133.933 78.7315C133.941 79.7175 133.845 80.0289 132.641 79.9065C130.21 79.6593 127.743 79.7302 125.292 79.7382C124.257 79.7416 123.912 79.5694 124.374 78.4463C125.495 75.728 124.625 72.6806 122.365 70.9322C120.161 69.2286 117.062 69.1872 114.803 70.8318C112.506 72.5034 111.573 75.5035 112.603 78.2911C112.979 79.3087 112.753 79.5412 111.731 79.539C109.029 79.5336 106.325 79.2416 103.626 79.5399C102.862 79.6243 103.038 79.1167 103.043 78.7412C103.071 76.2891 103.121 73.8374 103.159 71.3853C103.188 69.5699 103.105 69.5231 101.434 70.0686C99.3834 70.7373 97.4894 70.4036 95.8681 68.9716C94.1433 67.4485 93.5075 65.4825 93.9459 63.243C94.6711 59.5395 98.1603 57.6034 101.623 58.9164C103.237 59.5281 103.337 59.4657 103.37 57.7751C103.394 56.5917 103.407 55.4078 103.426 54.2239C103.431 54.2231 103.435 54.2231 103.44 54.2231V54.2231Z" fill="#2D2B6C"/>
<path d="M103.452 85.5002C103.472 84.2315 103.558 82.959 103.491 81.6946C103.429 80.5419 103.9 80.247 104.981 80.2951C107.304 80.3985 109.632 80.4002 111.959 80.4247C113.605 80.4419 114.199 79.6083 113.617 78.0818C112.761 75.836 113.164 73.8096 114.787 72.1001C116.328 70.4766 118.288 70.0677 120.384 70.7858C122.558 71.5301 123.658 73.2038 123.992 75.4318C124.129 76.344 123.917 77.1954 123.604 78.0333C122.904 79.9087 123.387 80.6027 125.421 80.6318C127.705 80.6643 129.989 80.728 132.272 80.7111C133.215 80.7044 133.523 81.036 133.484 81.9781C133.391 84.2181 133.355 86.4601 133.374 88.702C133.381 89.5142 133.081 89.7188 132.338 89.6821C131.413 89.6365 130.483 89.4931 129.558 89.7078C126.548 90.4052 124.312 93.432 124.64 96.3701C125.069 100.214 127.277 102.313 130.91 102.33C133.129 102.341 133.13 102.341 133.095 104.538C133.064 106.483 133.007 108.429 133.015 110.374C133.018 111.145 132.723 111.431 131.967 111.412C129.387 111.347 126.807 111.303 124.227 111.274C123.143 111.262 123.061 110.878 123.503 109.948C125.269 106.233 123.758 102.138 120.19 100.937C117.725 100.108 115.408 100.561 113.671 102.478C111.9 104.434 111.522 106.838 112.47 109.35C113.131 111.101 113.162 111.097 111.344 111.076C109.102 111.05 106.859 110.965 104.62 111.011C103.474 111.035 103.052 110.694 103.106 109.499C103.221 106.965 103.207 104.425 103.232 101.887C103.246 100.498 102.617 100.001 101.338 100.487C98.9808 101.384 96.9202 101.001 95.2255 99.1306C93.6429 97.384 93.4514 94.8896 94.6175 92.608C95.6769 90.5343 98.4674 89.5205 100.854 90.3474C101.173 90.458 101.473 90.6305 101.796 90.7174C102.777 90.9807 103.356 90.5706 103.391 89.5606C103.437 88.2079 103.438 86.8541 103.459 85.5006L103.452 85.5002V85.5002Z" fill="#FFBE55"/>
<path opacity="0.4" d="M54.5661 103.52C54.5661 103.52 27.2829 78.6687 0 97.2865C0 97.2865 13.3879 80.1605 32.6271 82.7143C51.8664 85.2681 54.5661 103.52 54.5661 103.52Z" fill="#32BF74"/>
<path opacity="0.4" d="M53.7312 104.52C53.7312 104.52 50.1822 67.7865 17.4614 63.2789C17.4614 63.2789 38.8802 59.5674 51.4297 74.372C63.9788 89.1766 53.7312 104.52 53.7312 104.52Z" fill="#32BF74"/>
<path d="M53.9704 104.362C53.9704 104.362 41.1859 69.7429 8.39548 73.7147C8.39548 73.7147 28.1634 64.672 44.0688 75.7934C59.9741 86.9148 53.9704 104.362 53.9704 104.362V104.362Z" fill="#016D62"/>
<path d="M65.7466 104.286C65.7466 108.139 62.6233 111.263 58.77 111.263H48.0414C44.1886 111.263 41.0648 108.139 41.0648 104.286C41.0648 100.433 44.1881 97.3096 48.0414 97.3096H58.77C62.6233 97.31 65.7466 100.433 65.7466 104.286V104.286ZM242.32 108.546C242.32 109.043 242.123 109.519 241.772 109.87C241.42 110.222 240.944 110.419 240.447 110.419H233.223C232.726 110.419 232.25 110.222 231.899 109.87C231.547 109.519 231.35 109.043 231.35 108.546V91.689C231.35 91.1923 231.547 90.716 231.899 90.3648C232.25 90.0136 232.726 89.8163 233.223 89.8162H240.447C240.944 89.8163 241.42 90.0136 241.772 90.3648C242.123 90.716 242.32 91.1923 242.32 91.689V108.546Z" fill="#FFBE55"/>
<path opacity="0.4" d="M237.701 70.4116C237.701 70.4116 231.787 82.4338 240.501 84.4808C249.215 86.5283 249.467 77.4599 248.573 73.7227C247.68 69.9855 261.508 59.9378 250.104 51.0496C238.699 42.1609 229.811 65.8259 237.701 70.4116Z" fill="#FFBE55"/>
<path opacity="0.4" d="M226.689 76.9376C226.689 76.9376 226.41 84.8488 231.603 83.8434C236.795 82.838 234.736 77.8894 233.35 76.0913C231.964 74.2931 236.986 65.531 228.688 63.5C220.39 61.4689 221.326 76.3752 226.689 76.9376V76.9376Z" fill="#FFBE55"/>
<path d="M227.574 69.4801L233.996 89.8158M231.32 73.621L229.96 77.0355L226.861 75.3281M244.666 57.9743L239.158 89.8158M247.898 62.7908L243.335 65.6732L240.406 61.7204M246.649 69.4682L242.086 72.3503L239.158 68.3979" stroke="#4D4D4D" stroke-miterlimit="10"/>
</svg>
