<svg width="206" height="163" viewBox="0 0 206 163" fill="none" xmlns="http://www.w3.org/2000/svg">
<path opacity="0.1" d="M12.634 155.274C12.634 155.274 1.8475 132.372 19.7995 118.208C37.7515 104.044 4.82534 89.6653 16.7083 72.0732C28.5913 54.481 68.9833 68.7412 67.9662 36.1522C66.949 3.566 100.892 -5.25984 112.095 4.58316C123.298 14.4262 124.837 62.4087 156.995 57.2577C189.154 52.1067 219.36 120.101 193.559 155.183L12.634 155.274Z" fill="#FFBE55"/>
<path opacity="0.33" d="M30.6001 22.0167H182.149V114.228H30.6001V22.0167Z" fill="#5F2B9E"/>
<path d="M38.287 28.9215H174.46V107.32H38.287V28.9215Z" fill="#F7F7F7"/>
<path opacity="0.61" d="M38.287 28.9215H174.46V30.1993H38.287V28.9215Z" fill="#2A94F4"/>
<path d="M24.3753 138.158C24.3753 138.158 20.8932 142.167 20.2528 142.805C19.7258 143.332 18.975 143.524 18.2582 143.725C18.0287 143.791 17.7283 144.026 17.4762 144.224C17.2722 144.383 17.1787 144.632 17.1843 144.89C17.2665 149.401 21.1935 152.565 21.4032 152.299C21.78 151.823 21.4938 150.5 20.743 149.63C19.9865 148.752 19.8052 147.516 20.1423 146.409C20.4115 145.527 20.9017 144.731 21.5675 144.094L24.5963 141.26L24.3753 138.158ZM59.9705 143.859L62.7415 148.488C63.5886 149.904 63.9003 151.577 63.6198 153.203C63.5821 153.417 63.591 153.636 63.6459 153.846C63.7008 154.056 63.8003 154.251 63.9378 154.419C64.0753 154.587 64.2474 154.723 64.4424 154.819C64.6375 154.914 64.8507 154.966 65.0677 154.971C68.0512 155.045 73.8198 155.152 73.987 154.88C74.8342 153.498 71.1848 152.877 68.3175 151.905C66.3852 151.251 64.0052 146.018 62.4978 141.898L60.2368 143.329C60.0612 143.448 59.962 143.649 59.9705 143.859Z" fill="#FA968C"/>
<path d="M68.2608 153.5C69.4848 153.5 70.7343 153.22 71.8903 152.99C72.0235 152.965 72.1595 152.973 72.287 153.019C73.6243 153.492 74.4347 154.146 73.9842 154.88C73.8028 155.175 67.0142 155.022 64.365 154.951C63.8097 154.937 63.4045 154.433 63.5008 153.886L63.6737 152.891C65.1725 153.274 66.7082 153.5 68.2608 153.5ZM50.0595 91.5835C46.9967 90.9715 43.3388 93.479 42.5512 97.4202C42.0978 99.684 41.4292 108.125 41.5255 115.01C41.5623 117.653 40.293 120.195 38.0348 121.569C37.6665 121.793 37.3293 122.039 37.0375 122.305C35.5273 123.685 28.4978 132.494 24.092 138.472C23.9532 139.407 24.092 140.699 24.6162 141.314C30.2545 136.897 39.8142 128.578 41.4235 127.111C42.316 126.295 43.3133 125.34 44.1265 124.402C47.5888 122.082 53.213 104.359 53.944 100.701C54.7288 96.76 53.1223 92.1984 50.0595 91.5835Z" fill="#0B4870"/>
<path d="M48.147 72.1723C50.7774 72.1723 52.9098 69.4209 52.9098 66.0268C52.9098 62.6328 50.7774 59.8813 48.147 59.8813C45.5165 59.8813 43.3842 62.6328 43.3842 66.0268C43.3842 69.4209 45.5165 72.1723 48.147 72.1723Z" fill="#0B4870"/>
<path d="M47.0051 66.6615C46.9286 63.2587 44.1747 60.3998 40.7775 60.2072C37.7628 60.0343 35.1618 61.8817 34.1872 64.5167C33.8472 65.4403 32.9405 66.041 31.9545 66.0268C31.5465 66.0212 31.1243 66.058 30.6965 66.1458C28.206 66.6558 26.2736 68.7582 26.013 71.2855C25.7778 73.5663 26.8432 75.612 28.5573 76.7794C29.2883 77.278 29.7048 78.1025 29.8266 78.978C30.3876 83.0325 34.0908 86.0103 38.3125 85.5485C41.925 85.1518 44.815 82.1797 45.121 78.5615C45.3108 76.3402 44.5458 74.303 43.2056 72.7929C45.495 71.7105 47.0646 69.3702 47.0051 66.6615ZM48.147 57.8668C48.147 57.8668 50.8273 59.5527 50.5015 61.825C50.5015 61.825 51.9323 60.8107 52.2582 57.32C52.482 54.9003 48.147 57.8668 48.147 57.8668Z" fill="#0B4870"/>
<path d="M53.6209 71.7133C53.5841 72.8438 53.6634 73.9941 53.8448 75.1133C54.0204 76.2296 54.3151 77.3318 54.7429 78.2866C54.9554 78.7626 55.2019 79.199 55.4683 79.5333C55.7346 79.8733 56.0066 80.0716 56.1851 80.1396C56.2786 80.1765 56.3579 80.1935 56.4713 80.1878C56.5818 80.1793 56.7263 80.1481 56.8906 80.0688C57.2221 79.9045 57.6131 79.6041 57.9701 79.2131C58.6954 78.434 59.3358 77.4196 59.8939 76.3571C60.4578 75.2918 60.9564 74.1641 61.4211 73.0166C61.8858 71.8663 62.3023 70.6905 62.7018 69.5033C63.1013 68.3161 63.4753 67.1148 63.8266 65.905V65.9021C63.8476 65.8305 63.8825 65.7637 63.9294 65.7056C63.9762 65.6474 64.034 65.5991 64.0995 65.5633C64.1651 65.5275 64.237 65.505 64.3112 65.497C64.3854 65.4891 64.4605 65.4958 64.5321 65.5168C64.8098 65.599 64.9798 65.8738 64.9344 66.1543C64.5264 68.6675 64.0391 71.1778 63.3393 73.6683C62.9936 74.915 62.5941 76.1531 62.0898 77.38C61.5854 78.6068 60.9989 79.828 60.1178 81.0066C59.6701 81.5903 59.1318 82.174 58.3724 82.6528C57.9899 82.888 57.5366 83.0891 57.0266 83.1996C56.5194 83.3101 55.9556 83.3101 55.4343 83.194C54.9129 83.0806 54.4454 82.8625 54.0459 82.6075C53.6493 82.3525 53.3093 82.0606 53.0203 81.7603C52.4394 81.154 52.0088 80.5108 51.6518 79.8591C50.9463 78.553 50.4958 77.2128 50.1728 75.8556C49.8611 74.4956 49.6911 73.1158 49.6514 71.719V71.7105C49.6365 71.1845 49.8311 70.6741 50.1924 70.2915C50.5537 69.909 51.0521 69.6856 51.5781 69.6705C52.1041 69.6555 52.6145 69.8501 52.997 70.2114C53.3796 70.5727 53.603 71.0711 53.6181 71.5971C53.6238 71.6311 53.6238 71.6765 53.6209 71.7133Z" fill="#FAB9AF"/>
<path d="M51.1476 83.4887C52.2214 80.2558 54.3776 73.4133 54.1934 71.175C54.1363 70.4844 53.8212 69.8405 53.3109 69.3717C52.8006 68.9028 52.1324 68.6433 51.4394 68.6448H42.1092C40.5622 68.6448 39.2958 69.8717 39.2533 71.4187C39.1739 74.1217 40.4206 80.27 41.1204 83.4887H51.1476ZM49.3087 98.0803C50.3826 101.954 59.1036 129.494 56.0946 130.327C53.0856 131.16 36.7032 104.271 36.4936 100.256C36.2952 96.4483 38.5024 92.323 41.5114 91.49C44.5233 90.6598 48.2378 94.2072 49.3087 98.0803Z" fill="#FAB9AF"/>
<path d="M62.7981 142.997C62.9086 142.867 62.9341 142.683 62.8774 142.521C60.5456 136.064 57.4148 127.887 56.7461 126.343C56.6696 126.167 56.5903 125.994 56.5053 125.827C55.3663 117.662 50.1274 101.03 49.3114 98.0832C48.2376 94.21 44.5259 90.6627 41.5141 91.4957C38.5051 92.3287 36.2979 96.454 36.4963 100.262C36.6266 102.775 43.0923 114.247 48.6513 122.277C49.8214 123.966 50.5553 125.906 50.9123 127.932C51.1588 129.332 51.5554 130.729 51.9974 131.749C52.6548 133.27 56.5081 139.073 59.9534 143.994C60.0526 144.136 60.2198 144.221 60.3926 144.204C61.3049 144.105 62.1691 143.737 62.7981 142.997Z" fill="#0B4870"/>
<path d="M40.0522 87.5857C40.5338 86.2313 40.6811 84.7807 40.4771 83.3555C40.0068 80.049 39.1851 73.8213 39.2588 71.1778C39.2985 69.764 40.4573 68.6448 41.8711 68.6448H43.2538C43.7808 69.866 44.8971 70.8095 46.634 70.8095C48.368 70.8095 49.4843 69.866 50.0113 68.6448H51.309C49.898 71.668 50.4051 75.6545 52.8333 77.9807C52.3828 79.5758 52.0031 81.1823 51.7198 82.4828C51.336 84.2452 51.5032 86.083 52.1986 87.7472C53.3915 90.6088 54.335 95.1988 54.0545 97.015C44.2398 99.7973 37.454 94.873 37.454 94.873L40.0522 87.5857Z" fill="#FFBE55"/>
<path d="M48.1469 69.288L43.9167 68.8432L45.2541 64.2135L47.9911 64.5507L48.1469 69.288Z" fill="#FAB9AF"/>
<path d="M47.9912 64.5507L45.2542 64.2107L44.8348 65.6557C45.4468 66.347 46.2345 67.8402 47.2318 67.8402C47.5492 67.8402 47.8353 67.7524 48.096 67.588L47.9912 64.5507Z" fill="#FA968C"/>
<path d="M48.0875 66.789C47.1582 66.789 46.1523 66.3243 44.7668 65.1145C43.9707 64.4203 43.3813 63.2077 43.3813 62.3917V57.8668H50.3485C50.3485 57.8668 50.8727 60.2695 50.3627 62.6552C49.9858 64.443 48.8185 66.7918 48.0875 66.789Z" fill="#FAB9AF"/>
<path d="M44.5656 61.536C44.5656 62.42 44.1435 63.134 43.6221 63.134C43.1008 63.134 42.5256 61.978 42.5256 61.094C42.5256 60.21 43.1008 59.938 43.6221 59.938C44.1406 59.9352 44.5656 60.652 44.5656 61.536Z" fill="#FAB9AF"/>
<path d="M42.5256 58.4137C42.5256 56.9998 43.6703 55.8552 45.0841 55.8552H47.4358C48.1073 55.8552 48.7618 55.6795 49.3341 55.3537C50.1643 54.8833 51.2126 55.0392 51.7793 55.807C52.3913 56.6372 52.6548 57.7478 51.105 58.7763C50.3343 59.2892 49.2066 58.7225 48.4558 58.9662C48.4105 58.9633 48.368 58.9577 48.3198 58.9577H46.2458C45.5261 58.9577 44.9736 59.547 44.9538 60.2667C44.9475 60.4865 44.8559 60.6953 44.6982 60.8487C44.5406 61.0021 44.3294 61.0881 44.1095 61.0883H44.016L43.6845 60.0258L42.5285 61.587V58.4137H42.5256Z" fill="#0B4870"/>
<path d="M65.419 63.4117C65.419 63.4117 65.9064 65.8172 65.2207 66.2082C64.535 66.5992 64.0052 66.738 63.396 65.7633C62.7869 64.7887 62.4185 63.1595 62.393 62.1395C62.3675 61.1195 63.0447 59.3912 63.2402 59.2523C63.9485 58.7537 63.8012 60.6067 63.7757 61.5077C63.7474 62.4087 63.8069 63.4287 64.2432 63.321C64.6795 63.2105 64.603 61.4822 65.062 61.1903C65.5239 60.8985 65.419 63.4117 65.419 63.4117Z" fill="#FAB9AF"/>
<path d="M49.8329 57.7875C49.6006 58.8217 49.9434 59.3855 46.5547 61.0005C43.1661 62.6155 42.0922 61.9242 41.0354 63.661C41.0354 63.661 41.4972 60.7823 43.3701 59.7963C45.2429 58.8075 48.4871 58.1643 49.5297 55.875C49.5269 55.875 49.9916 57.0792 49.8329 57.7875Z" fill="#0B4870"/>
<path d="M49.1811 57.9802C49.1811 57.9802 49.3087 61.4624 52.3517 63.134C52.3517 63.134 51.0115 60.5019 51.1022 58.782C51.1928 57.0594 48.98 56.7902 49.1811 57.9802Z" fill="#0B4870"/>
<path d="M141.8 40.524H141.233V39.1073H139.817V38.5407H141.8V40.524ZM141.8 79.4087H141.233V76.1673H141.8V79.4087ZM141.8 72.9288H141.233V69.6875H141.8V72.9288ZM141.8 66.449H141.233V63.2077H141.8V66.449ZM141.8 59.9663H141.233V56.725H141.8V59.9663ZM141.8 53.4865H141.233V50.2452H141.8V53.4865ZM141.8 47.0038H141.233V43.7625H141.8V47.0038ZM141.8 84.6333H139.817V84.0667H141.233V82.65H141.8V84.6333ZM136.417 84.6333H133.017V84.0667H136.417V84.6333ZM129.617 84.6333H126.217V84.0667H129.617V84.6333ZM122.817 84.6333H119.417V84.0667H122.817V84.6333ZM116.017 84.6333H112.617V84.0667H116.017V84.6333ZM109.217 84.6333H105.817V84.0667H109.217V84.6333ZM102.417 84.6333H99.0167V84.0667H102.417V84.6333ZM95.6167 84.6333H92.2167V84.0667H95.6167V84.6333ZM88.8167 84.6333H85.4167V84.0667H88.8167V84.6333ZM82.0167 84.6333H78.6167V84.0667H82.0167V84.6333ZM75.2167 84.6333H73.2334V82.65H73.8001V84.0667H75.2167V84.6333ZM73.8001 79.403H73.2334V76.156H73.8001V79.403ZM73.8001 72.909H73.2334V69.662H73.8001V72.909ZM73.8001 66.4122H73.2334V63.1652H73.8001V66.4122ZM73.8001 59.9182H73.2334V56.6712H73.8001V59.9182ZM73.8001 53.4242H73.2334V50.1772H73.8001V53.4242ZM73.8001 46.9273H73.2334V43.6803H73.8001V46.9273ZM73.8001 40.4333H73.2334V38.45L75.2167 38.4528V39.0195L73.8001 39.0167V40.4333ZM136.417 39.1045L133.017 39.0988V38.5322L136.417 38.5378V39.1045ZM129.617 39.096L126.217 39.0903V38.5237L129.617 38.5293V39.096ZM122.817 39.0875L119.417 39.0818V38.5152L122.817 38.5208V39.0875ZM116.017 39.0762L112.617 39.0705V38.5038L116.017 38.5095V39.0762ZM109.217 39.0677L105.817 39.062V38.4953L109.217 38.501V39.0677ZM102.417 39.0563L99.0167 39.0507V38.484L102.417 38.4897V39.0563ZM95.6167 39.0478L92.2167 39.0422V38.4755L95.6167 38.4812V39.0478ZM88.8167 39.0393L85.4167 39.0337V38.467L88.8167 38.4727V39.0393ZM82.0167 39.028L78.6167 39.0223V38.4557L82.0167 38.4613V39.028Z" fill="#D3D3D3"/>
<path d="M15.7308 145.663C15.6175 145.38 15.7251 145.054 15.9886 144.898C16.204 144.771 16.782 144.414 17.2155 144.148C17.4053 144.031 17.6405 144.156 17.666 144.374C17.9465 146.868 19.077 149.126 21.1963 150.202C21.7488 150.939 21.8281 152.203 21.5306 152.58C21.4598 152.667 20.4681 152.339 19.6351 151.387C15.9376 147.148 15.7308 145.663 15.7308 145.663Z" fill="#0B4870"/>
<path d="M63.6 33.6333H135.283V80.6666H63.6V33.6333Z" fill="#FFBE55"/>
<path opacity="0.78" d="M65.8667 36.4667H132.733V70.4667H65.8667V36.4667Z" fill="#F7F7F7"/>
<path d="M107.8 62.5333C107.8 68.4805 102.414 67.6333 96.4666 67.6333C90.5194 67.6333 86.2666 68.4805 86.2666 62.5333C86.2666 56.5862 91.0861 51.7667 97.0333 51.7667C102.98 51.7667 107.8 56.5862 107.8 62.5333Z" fill="#FFBE55"/>
<path d="M65.8667 70.5148L82.8667 56.0167L97.8834 70.4667L65.8667 70.5148Z" fill="#FFBE55"/>
<path d="M85.9097 70.5148L110.772 48.9333L132.733 70.444L85.9097 70.5148Z" fill="#FFBE55"/>
<path d="M65.8667 70.4667H132.674V76.9833H65.8667V70.4667Z" fill="#2D2B6C"/>
<path d="M75.8144 79.488C75.8144 79.488 73.3919 79.0913 73.0264 79.7912C72.6609 80.491 72.5419 81.0265 73.5421 81.596C74.5394 82.1655 76.1799 82.4744 77.2028 82.4602C78.2228 82.4489 79.9256 81.7037 80.0559 81.5025C80.5291 80.7743 78.6818 80.9925 77.7808 81.0548C76.8826 81.1172 75.8598 81.0974 75.9533 80.6554C76.0468 80.2134 77.7779 80.2247 78.0499 79.7544C78.3191 79.2897 75.8144 79.488 75.8144 79.488Z" fill="#FAB9AF"/>
<path d="M43.0385 71.124L43.0328 71.09C43.0328 71.0872 43.0356 71.0957 43.0356 71.0985L43.0413 71.1183L43.0611 71.192L43.1121 71.3648C43.1546 71.4895 43.2 71.617 43.2566 71.7502C43.3615 72.0137 43.4918 72.2828 43.6448 72.5463C43.9451 73.0733 44.322 73.5805 44.747 74.0593C45.614 75.0085 46.6708 75.8585 47.8665 76.5498C49.0565 77.2525 50.3626 77.8248 51.7226 78.298C53.0911 78.7627 54.5106 79.1225 55.9585 79.4257C58.8626 80.0008 61.8688 80.2586 64.8976 80.3748L66.0338 80.4145L67.1728 80.4202L68.3146 80.423C68.6943 80.4258 69.0768 80.406 69.4565 80.4032C70.2186 80.3833 70.9836 80.3918 71.7486 80.3465C72.5108 80.3068 73.2786 80.2785 74.0436 80.2502H74.0578C74.3723 80.2388 74.6358 80.4825 74.6471 80.797C74.6585 81.0832 74.4573 81.3268 74.1853 81.3778C72.6638 81.664 71.1338 81.9303 69.5925 82.14C68.8246 82.2647 68.0483 82.3327 67.272 82.4148L66.1075 82.5338L64.9373 82.6188L63.7671 82.7038L62.5913 82.7463C62.1975 82.7577 61.8065 82.7747 61.4126 82.7775L60.2311 82.769C58.653 82.769 57.0691 82.65 55.4796 82.4828C53.8901 82.293 52.3006 82.0012 50.7196 81.5847C49.1415 81.1568 47.5775 80.576 46.0701 79.7968C44.5656 79.0205 43.132 77.9977 41.8853 76.7113C41.2705 76.0597 40.7123 75.3343 40.2335 74.5353C39.9955 74.1358 39.7773 73.7165 39.5903 73.2688C39.4968 73.0478 39.4118 72.8127 39.3325 72.5747C39.2956 72.4472 39.256 72.3282 39.222 72.195C39.1851 72.0448 39.1596 71.9627 39.1171 71.702C39.0409 71.1816 39.1745 70.6523 39.4885 70.2304C39.8026 69.8086 40.2713 69.5287 40.7916 69.4523C41.874 69.288 42.8798 70.0388 43.0385 71.124Z" fill="#FAB9AF"/>
<path d="M135.992 101.35H79.0417C75.8344 101.35 73.2334 98.749 73.2334 95.5417C73.2334 92.3343 75.8344 89.7333 79.0417 89.7333H135.992C139.199 89.7333 141.8 92.3343 141.8 95.5417C141.8 98.749 139.199 101.35 135.992 101.35Z" fill="#FFBE55"/>
<path d="M163.248 40.728C160.568 40.7252 157.888 40.796 155.21 40.7053C152.116 40.6005 149.77 39.1187 148.152 36.4808C147.132 34.8177 146.77 32.9703 147.039 31.089C147.543 27.5643 150.025 24.6715 153.802 23.8583C154.338 23.7422 154.879 23.6827 155.42 23.728C155.907 23.7677 156.066 23.6005 156.046 23.1047C155.958 21.0448 156.584 19.2003 157.862 17.5938C159.338 15.7408 161.237 14.6443 163.631 14.4233C167.096 14.1003 169.757 15.4292 171.703 18.2682C171.907 18.5657 172.023 18.5883 172.343 18.3673C176.474 15.5085 182.509 17.4068 184.294 22.1073C184.365 22.2915 184.456 22.4672 184.513 22.6513C184.847 23.7082 184.847 23.7082 185.909 23.7223C188.825 23.7592 192.058 26.0315 193.154 28.8167C193.256 29.0773 193.338 29.3465 193.429 29.6128C193.154 29.6355 193.021 29.8112 192.919 30.0463C192.539 30.9105 191.936 31.6358 191.307 32.3073C189.377 34.3728 186.98 35.7413 184.388 36.7953C183.204 37.277 181.982 37.6227 180.744 37.9428C179.132 38.3593 177.514 38.7277 175.882 39.0422C174.182 37.3563 172.479 35.6733 170.785 33.9818C170.561 33.758 170.417 33.6135 170.116 33.9195C167.918 36.155 165.702 38.3707 163.489 40.592C163.41 40.6373 163.328 40.6827 163.248 40.728ZM167.552 16.1942C167.297 15.9392 167.09 16.0355 166.906 16.0043C163.69 15.4178 161.106 16.571 159.049 18.9793C158.5 19.6225 158.063 20.4187 157.769 21.2148C157.409 22.1838 157.242 23.2265 157.344 24.2833C157.386 24.7253 157.202 24.9152 156.743 24.9067C154.581 24.867 152.74 25.6462 151.159 27.1025C150.18 28.001 149.437 29.1269 148.997 30.3807C148.515 31.7407 148.407 33.1828 148.722 34.608C148.875 35.3022 148.963 36.0473 149.47 36.6225C149.682 36.5092 149.62 36.3392 149.62 36.1975C149.634 35.3305 149.62 34.4663 149.745 33.5993C150.082 31.2392 151.02 29.219 153.074 27.9072C154.559 26.9608 156.239 26.5273 158.015 26.6123C158.59 26.6407 158.806 26.499 158.794 25.8672C158.755 23.4645 159.333 21.2177 160.868 19.325C161.877 18.0783 163.18 17.2085 164.767 16.7807C165.657 16.5398 166.558 16.3642 167.552 16.1942Z" fill="#2D2B6C"/>
<path d="M177.591 40.7252C177.508 40.6827 177.429 40.643 177.347 40.6005C176.857 40.082 176.369 39.5607 175.879 39.0422C177.511 38.7277 179.132 38.3593 180.741 37.9428C181.979 37.6227 183.201 37.277 184.385 36.7953C186.98 35.7413 189.377 34.3728 191.304 32.3073C191.933 31.633 192.536 30.9105 192.916 30.0463C193.021 29.8112 193.151 29.6327 193.426 29.6128C194.333 32.5538 193.806 35.2285 191.893 37.6255C190.686 39.1413 189.1 40.082 187.215 40.4985C186.606 40.6317 185.974 40.711 185.354 40.7167C182.77 40.7393 180.18 40.7252 177.591 40.7252Z" fill="#504E8E"/>
<path d="M175.287 42.6972C175.287 42.6122 175.321 42.581 175.403 42.6122C175.364 42.6434 175.327 42.6717 175.287 42.6972ZM179.305 42.5499C179.322 42.5555 179.339 42.5612 179.35 42.5725C179.359 42.5782 179.356 42.5952 179.359 42.6065C179.342 42.5867 179.327 42.564 179.31 42.5442C179.31 42.547 179.305 42.5499 179.305 42.5499Z" fill="#F7F7F7"/>
<path d="M163.248 40.728C163.328 40.6827 163.407 40.6373 163.489 40.5948C163.659 40.7932 163.892 40.7195 164.101 40.7195C168.312 40.7252 172.525 40.7252 176.735 40.7195C176.945 40.7195 177.174 40.7903 177.35 40.6033C177.432 40.6458 177.511 40.6855 177.594 40.728L179.308 42.5527L179.313 42.547L175.406 42.615C175.324 42.581 175.287 42.615 175.29 42.7C175.273 43.2667 175.253 43.8333 175.236 44.3972C174.825 44.7995 174.896 45.3747 174.766 45.862C174.168 48.0833 173.145 50.0298 171.499 51.6618C171.003 52.152 170.337 52.407 169.915 52.9652C168.609 52.9765 167.303 52.9765 166 53.0048C165.484 53.0162 165.594 52.6733 165.594 52.3872C165.592 49.3612 165.577 46.3324 165.606 43.3064C165.611 42.7312 165.467 42.5583 164.886 42.5838C163.804 42.632 162.719 42.598 161.506 42.598C162.141 41.9124 162.693 41.3202 163.248 40.728Z" fill="#FFBE55"/>
<path d="M169.91 52.9652C170.332 52.407 170.998 52.152 171.493 51.6618C173.14 50.027 174.165 48.0833 174.76 45.862C174.891 45.3747 174.82 44.7995 175.231 44.3972V52.628C175.092 52.9907 174.698 52.7923 174.474 52.968C172.955 52.968 171.434 52.9652 169.91 52.9652Z" fill="#FFBE55"/>
<path d="M174.48 52.968C174.704 52.7924 175.097 52.9907 175.236 52.628C175.253 53.3449 174.755 52.9057 174.48 52.968ZM175.879 39.0422C176.37 39.5607 176.857 40.082 177.347 40.6005C177.171 40.7875 176.939 40.7167 176.732 40.7167C172.522 40.7195 168.309 40.7195 164.098 40.7167C163.892 40.7167 163.659 40.7904 163.486 40.592C165.696 38.3707 167.915 36.155 170.113 33.9195C170.414 33.6135 170.558 33.758 170.782 33.9819C172.479 35.6734 174.179 37.3564 175.879 39.0422Z" fill="#FFBE55"/>
<path d="M167.552 16.1942C166.558 16.3642 165.659 16.5398 164.767 16.7807C163.18 17.2085 161.877 18.0812 160.868 19.325C159.335 21.2177 158.755 23.4645 158.794 25.8672C158.806 26.499 158.59 26.6378 158.015 26.6123C156.239 26.5273 154.558 26.9608 153.074 27.9072C151.02 29.219 150.079 31.2392 149.745 33.5993C149.62 34.4663 149.634 35.3305 149.62 36.1975C149.617 36.3363 149.682 36.5092 149.47 36.6225C148.963 36.0473 148.875 35.305 148.722 34.608C148.407 33.1828 148.515 31.7407 148.997 30.3807C149.439 29.1312 150.164 28.0205 151.158 27.1025C152.739 25.6462 154.581 24.867 156.743 24.9067C157.202 24.9152 157.386 24.7253 157.344 24.2833C157.242 23.2265 157.412 22.1838 157.769 21.2148C158.063 20.4187 158.5 19.6225 159.049 18.9793C161.109 16.5682 163.69 15.415 166.906 16.0043C167.09 16.0355 167.297 15.9392 167.552 16.1942Z" fill="#7675B9"/>
<path d="M133.867 97.3833H82.0167C81.0789 97.3833 80.3167 96.6212 80.3167 95.6833C80.3167 94.7455 81.0789 93.9833 82.0167 93.9833H133.867C134.805 93.9833 135.567 94.7455 135.567 95.6833C135.567 96.6212 134.805 97.3833 133.867 97.3833ZM202.008 162.833H4.8084C2.69473 162.833 0.983398 161.122 0.983398 159.008C0.983398 156.895 2.69473 155.183 4.8084 155.183H202.008C204.122 155.183 205.833 156.895 205.833 159.008C205.833 161.122 204.122 162.833 202.008 162.833Z" fill="#F7F7F7"/>
<path d="M169.476 143.652C172.753 143.652 175.409 140.995 175.409 137.719C175.409 134.442 172.753 131.786 169.476 131.786C166.199 131.786 163.543 134.442 163.543 137.719C163.543 140.995 166.199 143.652 169.476 143.652Z" fill="#FFBE55"/>
<path opacity="0.4" d="M182.886 120.591L192.054 126.795L185.85 135.963L176.682 129.759L182.886 120.591Z" fill="#5F2B9E"/>
<path d="M189.593 114.335L200.603 115.471L199.467 126.485" fill="#0B4870"/>
</svg>
